<?xml version="1.0" encoding="UTF-8" standalone="no"?>
<!DOCTYPE svg PUBLIC "-//W3C//DTD SVG 1.1//EN"
 "http://www.w3.org/Graphics/SVG/1.1/DTD/svg11.dtd">
<!-- Generated by graphviz version 2.43.0 (0)
 -->
<!-- Pages: 1 -->
<svg width="3152pt" height="1088pt"
 viewBox="0.00 0.00 3152.00 1088.00" xmlns="http://www.w3.org/2000/svg" xmlns:xlink="http://www.w3.org/1999/xlink">
<g id="graph0" class="graph" transform="scale(1 1) rotate(0) translate(4 1084)">
<polygon fill="white" stroke="transparent" points="-4,4 -4,-1084 3148,-1084 3148,4 -4,4"/>
<!-- s0 -->
<g id="node1" class="node">
<title>s0</title>
<ellipse fill="none" stroke="red" cx="1805" cy="-975" rx="27" ry="18"/>
<text text-anchor="middle" x="1805" y="-971.3" font-family="Times,serif" font-size="14.00">s0</text>
</g>
<!-- s0&#45;&gt;s0 -->
<g id="edge1" class="edge">
<title>s0&#45;&gt;s0</title>
<path fill="none" stroke="black" d="M1829.53,-982.75C1840.51,-983.49 1850,-980.91 1850,-975 1850,-971.03 1845.72,-968.56 1839.57,-967.59"/>
<polygon fill="black" stroke="black" points="1839.65,-964.09 1829.53,-967.25 1839.41,-971.09 1839.65,-964.09"/>
<text text-anchor="middle" x="1866" y="-971.3" font-family="Times,serif" font-size="14.00">0.88</text>
</g>
<!-- s1 -->
<g id="node2" class="node">
<title>s1</title>
<ellipse fill="none" stroke="red" cx="1319" cy="-888" rx="27" ry="18"/>
<text text-anchor="middle" x="1319" y="-884.3" font-family="Times,serif" font-size="14.00">s1</text>
</g>
<!-- s0&#45;&gt;s1 -->
<g id="edge2" class="edge">
<title>s0&#45;&gt;s1</title>
<path fill="none" stroke="black" d="M1779.21,-969.49C1698.15,-955.31 1448.33,-911.62 1354.82,-895.26"/>
<polygon fill="black" stroke="black" points="1355.18,-891.77 1344.72,-893.5 1353.97,-898.67 1355.18,-891.77"/>
<text text-anchor="middle" x="1611.5" y="-927.8" font-family="Times,serif" font-size="14.00">0.013</text>
</g>
<!-- s10 -->
<g id="node3" class="node">
<title>s10</title>
<ellipse fill="none" stroke="red" cx="1440" cy="-18" rx="27.1" ry="18"/>
<text text-anchor="middle" x="1440" y="-14.3" font-family="Times,serif" font-size="14.00">s10</text>
</g>
<!-- s0&#45;&gt;s10 -->
<g id="edge3" class="edge">
<title>s0&#45;&gt;s10</title>
<path fill="none" stroke="black" d="M1831.96,-973.94C1968.61,-973.49 2581.41,-969.78 2660,-939 2706.89,-920.63 2983.17,-690.39 3005,-645 3014.2,-625.86 3011,-475.23 3011,-454 3011,-454 3011,-454 3011,-104 3011,-39.18 2937.69,-66.06 2874,-54 2733.39,-27.37 1689.1,-20.34 1477.38,-19.19"/>
<polygon fill="black" stroke="black" points="1477.39,-15.69 1467.37,-19.13 1477.36,-22.69 1477.39,-15.69"/>
<text text-anchor="middle" x="3022.5" y="-492.8" font-family="Times,serif" font-size="14.00">0.0</text>
</g>
<!-- s11 -->
<g id="node4" class="node">
<title>s11</title>
<ellipse fill="none" stroke="red" cx="966" cy="-105" rx="27.1" ry="18"/>
<text text-anchor="middle" x="966" y="-101.3" font-family="Times,serif" font-size="14.00">s11</text>
</g>
<!-- s0&#45;&gt;s11 -->
<g id="edge4" class="edge">
<title>s0&#45;&gt;s11</title>
<path fill="none" stroke="black" d="M1785.97,-962.02C1781.84,-959.96 1777.39,-958.12 1773,-957 1692.58,-936.45 354.02,-974.53 279,-939 233.38,-917.39 233.41,-894.38 206,-852 80.01,-657.18 -59.41,-540.57 70,-348 184.53,-177.59 283.38,-189.06 483,-141 525.87,-130.68 822.86,-113.77 928.67,-108"/>
<polygon fill="black" stroke="black" points="929.08,-111.48 938.87,-107.45 928.7,-104.49 929.08,-111.48"/>
<text text-anchor="middle" x="47.5" y="-536.3" font-family="Times,serif" font-size="14.00">0.002</text>
</g>
<!-- s2 -->
<g id="node5" class="node">
<title>s2</title>
<ellipse fill="none" stroke="red" cx="1381" cy="-192" rx="27" ry="18"/>
<text text-anchor="middle" x="1381" y="-188.3" font-family="Times,serif" font-size="14.00">s2</text>
</g>
<!-- s0&#45;&gt;s2 -->
<g id="edge5" class="edge">
<title>s0&#45;&gt;s2</title>
<path fill="none" stroke="black" d="M1785.97,-962.04C1781.83,-959.98 1777.39,-958.13 1773,-957 1664.77,-929 878.51,-947.05 767,-939 650.82,-930.61 612.56,-955.24 507,-906 432.43,-871.21 416.87,-841.68 387,-765 375.75,-736.13 369.47,-726.06 377,-696 398.31,-610.94 417.97,-592.58 470,-522 534.52,-434.47 548.85,-404.11 642,-348 709.21,-307.52 737.22,-323.67 811,-297 849.58,-283.05 857.76,-275.87 896,-261 936.88,-245.11 946.15,-237.36 989,-228 1117.26,-199.99 1273.81,-194.31 1343.93,-193.22"/>
<polygon fill="black" stroke="black" points="1344.08,-196.72 1354.03,-193.08 1343.99,-189.72 1344.08,-196.72"/>
<text text-anchor="middle" x="450.5" y="-579.8" font-family="Times,serif" font-size="14.00">0.068</text>
</g>
<!-- s3 -->
<g id="node6" class="node">
<title>s3</title>
<ellipse fill="none" stroke="red" cx="1946" cy="-279" rx="27" ry="18"/>
<text text-anchor="middle" x="1946" y="-275.3" font-family="Times,serif" font-size="14.00">s3</text>
</g>
<!-- s0&#45;&gt;s3 -->
<g id="edge6" class="edge">
<title>s0&#45;&gt;s3</title>
<path fill="none" stroke="black" d="M1831.8,-972.68C1885.24,-969.65 2008.64,-960.75 2110,-939 2331.87,-891.39 2398.95,-887.43 2590,-765 2677.37,-709.01 2677.77,-659.78 2698,-558 2709.71,-499.09 2693.36,-466.14 2642,-435 2616,-419.24 2605.1,-425.81 2576,-417 2438.79,-375.46 2410.07,-345.54 2270,-315 2167.79,-292.71 2044.21,-284.36 1983.44,-281.44"/>
<polygon fill="black" stroke="black" points="1983.35,-277.93 1973.2,-280.97 1983.03,-284.93 1983.35,-277.93"/>
<text text-anchor="middle" x="2708.5" y="-623.3" font-family="Times,serif" font-size="14.00">0.004</text>
</g>
<!-- s4 -->
<g id="node7" class="node">
<title>s4</title>
<ellipse fill="none" stroke="red" cx="1685" cy="-366" rx="27" ry="18"/>
<text text-anchor="middle" x="1685" y="-362.3" font-family="Times,serif" font-size="14.00">s4</text>
</g>
<!-- s0&#45;&gt;s4 -->
<g id="edge7" class="edge">
<title>s0&#45;&gt;s4</title>
<path fill="none" stroke="black" d="M1803.76,-956.88C1801.34,-923.45 1795.8,-847.16 1791,-783 1787.02,-729.7 1752.71,-707.04 1783,-663 1795.68,-644.57 1814.4,-661.03 1830,-645 1878.71,-594.94 1880.36,-551.41 1849,-489 1821.53,-434.34 1756.69,-397.97 1717.26,-380.05"/>
<polygon fill="black" stroke="black" points="1718.39,-376.72 1707.83,-375.89 1715.57,-383.12 1718.39,-376.72"/>
<text text-anchor="middle" x="1799" y="-666.8" font-family="Times,serif" font-size="14.00">0.01</text>
</g>
<!-- s5 -->
<g id="node8" class="node">
<title>s5</title>
<ellipse fill="none" stroke="red" cx="2227" cy="-453" rx="27" ry="18"/>
<text text-anchor="middle" x="2227" y="-449.3" font-family="Times,serif" font-size="14.00">s5</text>
</g>
<!-- s0&#45;&gt;s5 -->
<g id="edge8" class="edge">
<title>s0&#45;&gt;s5</title>
<path fill="none" stroke="black" d="M1832.12,-973.52C1960.2,-971.14 2499.39,-959.89 2528,-939 2608.89,-879.92 2626.29,-558.34 2554,-489 2543.63,-479.05 2347.21,-463.1 2263.88,-456.74"/>
<polygon fill="black" stroke="black" points="2264.07,-453.24 2253.83,-455.98 2263.54,-460.22 2264.07,-453.24"/>
<text text-anchor="middle" x="2610.5" y="-710.3" font-family="Times,serif" font-size="14.00">0.0</text>
</g>
<!-- s6 -->
<g id="node9" class="node">
<title>s6</title>
<ellipse fill="none" stroke="red" cx="1126" cy="-540" rx="27" ry="18"/>
<text text-anchor="middle" x="1126" y="-536.3" font-family="Times,serif" font-size="14.00">s6</text>
</g>
<!-- s0&#45;&gt;s6 -->
<g id="edge9" class="edge">
<title>s0&#45;&gt;s6</title>
<path fill="none" stroke="black" d="M1785.96,-962.05C1781.83,-959.99 1777.38,-958.14 1773,-957 1684.6,-933.95 1041.22,-953.37 951,-939 901.01,-931.04 887.72,-927.73 842,-906 717.08,-846.63 648.94,-854.12 584,-732 576.49,-717.87 574.37,-708.77 584,-696 646.58,-613.01 978.41,-561.03 1089.63,-545.74"/>
<polygon fill="black" stroke="black" points="1090.25,-549.18 1099.69,-544.37 1089.31,-542.25 1090.25,-549.18"/>
<text text-anchor="middle" x="624.5" y="-753.8" font-family="Times,serif" font-size="14.00">0.003</text>
</g>
<!-- s7 -->
<g id="node10" class="node">
<title>s7</title>
<ellipse fill="none" stroke="red" cx="985" cy="-627" rx="27" ry="18"/>
<text text-anchor="middle" x="985" y="-623.3" font-family="Times,serif" font-size="14.00">s7</text>
</g>
<!-- s0&#45;&gt;s7 -->
<g id="edge10" class="edge">
<title>s0&#45;&gt;s7</title>
<path fill="none" stroke="black" d="M1785.95,-962.09C1781.82,-960.02 1777.38,-958.17 1773,-957 1654.41,-925.39 1343.09,-951.53 1221,-939 1135.74,-930.25 1112.19,-933.46 1031,-906 951.72,-879.19 907.41,-890.55 864,-819 843.33,-784.93 888.69,-705.98 895,-696 909.52,-673.03 934.74,-654.99 954.79,-643.27"/>
<polygon fill="black" stroke="black" points="956.58,-646.29 963.59,-638.34 953.15,-640.18 956.58,-646.29"/>
<text text-anchor="middle" x="884.5" y="-797.3" font-family="Times,serif" font-size="14.00">0.018</text>
</g>
<!-- s8 -->
<g id="node11" class="node">
<title>s8</title>
<ellipse fill="none" stroke="red" cx="1159" cy="-714" rx="27" ry="18"/>
<text text-anchor="middle" x="1159" y="-710.3" font-family="Times,serif" font-size="14.00">s8</text>
</g>
<!-- s0&#45;&gt;s8 -->
<g id="edge11" class="edge">
<title>s0&#45;&gt;s8</title>
<path fill="none" stroke="black" d="M1785.94,-962.15C1781.81,-960.08 1777.37,-958.21 1773,-957 1697.72,-936.18 1499.31,-950.07 1422,-939 1359.15,-930 1343.43,-925.49 1283,-906 1223.07,-886.67 1187.03,-904.33 1152,-852 1129.96,-819.07 1139.52,-771.08 1148.92,-741.51"/>
<polygon fill="black" stroke="black" points="1152.29,-742.47 1152.19,-731.87 1145.66,-740.22 1152.29,-742.47"/>
<text text-anchor="middle" x="1172.5" y="-840.8" font-family="Times,serif" font-size="14.00">0.001</text>
</g>
<!-- s9 -->
<g id="node12" class="node">
<title>s9</title>
<ellipse fill="none" stroke="red" cx="2072" cy="-801" rx="27" ry="18"/>
<text text-anchor="middle" x="2072" y="-797.3" font-family="Times,serif" font-size="14.00">s9</text>
</g>
<!-- s0&#45;&gt;s9 -->
<g id="edge12" class="edge">
<title>s0&#45;&gt;s9</title>
<path fill="none" stroke="black" d="M1832.24,-972.95C1893.85,-970.2 2041.96,-961.39 2086,-939 2115.97,-923.77 2126.69,-902.19 2117,-870 2112.03,-853.48 2101.59,-837.28 2092.02,-824.83"/>
<polygon fill="black" stroke="black" points="2094.6,-822.46 2085.61,-816.86 2089.15,-826.85 2094.6,-822.46"/>
<text text-anchor="middle" x="2140.5" y="-884.3" font-family="Times,serif" font-size="14.00">0.001</text>
</g>
<!-- s1&#45;&gt;s0 -->
<g id="edge13" class="edge">
<title>s1&#45;&gt;s0</title>
<path fill="none" stroke="black" d="M1342.31,-897.39C1374.44,-908.62 1434.35,-928.36 1487,-939 1587.4,-959.29 1708.18,-968.51 1767.87,-972.08"/>
<polygon fill="black" stroke="black" points="1767.76,-975.58 1777.95,-972.66 1768.16,-968.59 1767.76,-975.58"/>
<text text-anchor="middle" x="1507.5" y="-927.8" font-family="Times,serif" font-size="14.00">0.005</text>
</g>
<!-- s1&#45;&gt;s1 -->
<g id="edge14" class="edge">
<title>s1&#45;&gt;s1</title>
<path fill="none" stroke="black" d="M1343.53,-895.75C1354.51,-896.49 1364,-893.91 1364,-888 1364,-884.03 1359.72,-881.56 1353.57,-880.59"/>
<polygon fill="black" stroke="black" points="1353.65,-877.09 1343.53,-880.25 1353.41,-884.09 1353.65,-877.09"/>
<text text-anchor="middle" x="1384.5" y="-884.3" font-family="Times,serif" font-size="14.00">0.725</text>
</g>
<!-- s1&#45;&gt;s10 -->
<g id="edge15" class="edge">
<title>s1&#45;&gt;s10</title>
<path fill="none" stroke="black" d="M1292.12,-885.87C1157.52,-880.19 562.95,-854.97 554,-852 549.13,-850.38 251.59,-648.67 248,-645 183.72,-579.23 165.86,-557.99 136,-471 102.03,-372.03 115,-341.14 115,-236.5 115,-236.5 115,-236.5 115,-104 115,-68.6 143.79,-66.24 177,-54 235.89,-32.29 1199.26,-21.42 1402.53,-19.36"/>
<polygon fill="black" stroke="black" points="1402.73,-22.86 1412.7,-19.26 1402.66,-15.86 1402.73,-22.86"/>
<text text-anchor="middle" x="156.5" y="-449.3" font-family="Times,serif" font-size="14.00">0.002</text>
</g>
<!-- s1&#45;&gt;s11 -->
<g id="edge16" class="edge">
<title>s1&#45;&gt;s11</title>
<path fill="none" stroke="black" d="M1292.05,-886.08C1206.54,-882.98 942.13,-871.99 859,-852 614.89,-793.28 501.57,-739.31 414,-504 404.83,-479.35 379.85,-478.45 422,-402 515.18,-233.01 589.76,-212.51 769,-141 822.13,-119.8 888.42,-111.4 928.95,-108.09"/>
<polygon fill="black" stroke="black" points="929.22,-111.58 938.93,-107.34 928.69,-104.6 929.22,-111.58"/>
<text text-anchor="middle" x="434.5" y="-492.8" font-family="Times,serif" font-size="14.00">0.007</text>
</g>
<!-- s1&#45;&gt;s2 -->
<g id="edge17" class="edge">
<title>s1&#45;&gt;s2</title>
<path fill="none" stroke="black" d="M1292.03,-885.7C1231.67,-882.51 1081.21,-872.97 957,-852 895.67,-841.65 875.64,-848.72 821,-819 800.56,-807.88 802.88,-795.08 783,-783 723.91,-747.08 679.21,-785.99 636,-732 592.45,-677.58 611.48,-645.17 620,-576 632.76,-472.33 598.68,-417.11 677,-348 702.01,-325.93 794.09,-339.69 826,-330 921.85,-300.88 930.84,-256.08 1027,-228 1138.75,-195.37 1277.87,-191.82 1343.46,-192.21"/>
<polygon fill="black" stroke="black" points="1343.68,-195.71 1353.71,-192.31 1343.75,-188.71 1343.68,-195.71"/>
<text text-anchor="middle" x="640" y="-536.3" font-family="Times,serif" font-size="14.00">0.03</text>
</g>
<!-- s1&#45;&gt;s3 -->
<g id="edge18" class="edge">
<title>s1&#45;&gt;s3</title>
<path fill="none" stroke="black" d="M1344.53,-881.51C1369.81,-875.67 1409.35,-865.42 1442,-852 1470.15,-840.43 1477.29,-836.76 1502,-819 1538.78,-792.56 1537.59,-772.32 1577,-750 1601.6,-736.07 1613.34,-745.82 1638,-732 1719.52,-686.3 1756.07,-676.41 1794,-591 1796.71,-584.91 1797.69,-581.55 1794,-576 1782.52,-558.75 1762.48,-575.25 1751,-558 1742.14,-544.68 1740.76,-534.29 1751,-522 1779.34,-487.98 1814.34,-531.57 1849,-504 1857.31,-497.39 1912.09,-363.78 1935.46,-306.12"/>
<polygon fill="black" stroke="black" points="1938.8,-307.18 1939.31,-296.6 1932.32,-304.55 1938.8,-307.18"/>
<text text-anchor="middle" x="1812" y="-579.8" font-family="Times,serif" font-size="14.00">0.02</text>
</g>
<!-- s1&#45;&gt;s4 -->
<g id="edge19" class="edge">
<title>s1&#45;&gt;s4</title>
<path fill="none" stroke="black" d="M1341.35,-877.54C1355.89,-871.05 1375.04,-861.86 1391,-852 1454.38,-812.85 1457.46,-783.49 1524,-750 1550.01,-736.91 1569.46,-755.25 1587,-732 1643.67,-656.87 1513.64,-603.89 1560,-522 1561.76,-518.9 1611.74,-490.45 1615,-489 1640.05,-477.86 1654.21,-489.97 1674,-471 1696.96,-448.99 1696.57,-433.61 1693,-402 1692.7,-399.31 1692.26,-396.52 1691.76,-393.74"/>
<polygon fill="black" stroke="black" points="1695.18,-393.01 1689.68,-383.96 1688.33,-394.47 1695.18,-393.01"/>
<text text-anchor="middle" x="1606.5" y="-623.3" font-family="Times,serif" font-size="14.00">0.023</text>
</g>
<!-- s1&#45;&gt;s5 -->
<g id="edge20" class="edge">
<title>s1&#45;&gt;s5</title>
<path fill="none" stroke="black" d="M1345.93,-886.25C1507.96,-881.74 2346.48,-858.11 2358,-852 2422.08,-818 2420.92,-766.99 2406,-696 2385.34,-597.65 2387.32,-558.79 2315,-489 2300.76,-475.26 2280.45,-466.7 2262.93,-461.49"/>
<polygon fill="black" stroke="black" points="2263.58,-458.04 2253.01,-458.8 2261.74,-464.79 2263.58,-458.04"/>
<text text-anchor="middle" x="2422.5" y="-666.8" font-family="Times,serif" font-size="14.00">0.005</text>
</g>
<!-- s1&#45;&gt;s6 -->
<g id="edge21" class="edge">
<title>s1&#45;&gt;s6</title>
<path fill="none" stroke="black" d="M1339.63,-875.88C1362.44,-861.92 1396,-835.65 1396,-802 1396,-802 1396,-802 1396,-669.5 1396,-567.7 1237.56,-546.46 1163.42,-542.09"/>
<polygon fill="black" stroke="black" points="1163.29,-538.58 1153.12,-541.56 1162.93,-545.57 1163.29,-538.58"/>
<text text-anchor="middle" x="1407.5" y="-710.3" font-family="Times,serif" font-size="14.00">0.0</text>
</g>
<!-- s1&#45;&gt;s7 -->
<g id="edge22" class="edge">
<title>s1&#45;&gt;s7</title>
<path fill="none" stroke="black" d="M1291.94,-885.37C1229.92,-881.36 1079.25,-870.04 1032,-852 1016.19,-845.96 914.83,-780 907,-765 890.86,-734.1 890.25,-733.24 942,-663 946.48,-656.93 952.24,-651.29 958.09,-646.4"/>
<polygon fill="black" stroke="black" points="960.28,-649.13 966,-640.21 955.96,-643.61 960.28,-649.13"/>
<text text-anchor="middle" x="923" y="-753.8" font-family="Times,serif" font-size="14.00">0.12</text>
</g>
<!-- s1&#45;&gt;s8 -->
<g id="edge23" class="edge">
<title>s1&#45;&gt;s8</title>
<path fill="none" stroke="black" d="M1305.36,-872.34C1277.26,-842.12 1212.77,-772.8 1179.57,-737.12"/>
<polygon fill="black" stroke="black" points="1181.98,-734.57 1172.61,-729.63 1176.86,-739.33 1181.98,-734.57"/>
<text text-anchor="middle" x="1275.5" y="-797.3" font-family="Times,serif" font-size="14.00">0.001</text>
</g>
<!-- s1&#45;&gt;s9 -->
<g id="edge24" class="edge">
<title>s1&#45;&gt;s9</title>
<path fill="none" stroke="black" d="M1345.91,-885.85C1417.12,-882.62 1616.35,-872.34 1781,-852 1873.72,-840.55 1981.91,-820.06 2036.55,-809.21"/>
<polygon fill="black" stroke="black" points="2037.31,-812.62 2046.43,-807.23 2035.94,-805.76 2037.31,-812.62"/>
<text text-anchor="middle" x="1897.5" y="-840.8" font-family="Times,serif" font-size="14.00">0.063</text>
</g>
<!-- s10&#45;&gt;s0 -->
<g id="edge25" class="edge">
<title>s10&#45;&gt;s0</title>
<path fill="none" stroke="black" d="M1467.56,-19.01C1659.89,-19.16 2798.14,-21.42 2948,-54 3005.19,-66.43 3057,-91.02 3057,-104 3057,-584.5 3057,-584.5 3057,-584.5 3057,-812.56 2906.14,-879.4 2686,-939 2603.85,-961.24 1999.58,-971.25 1842.32,-973.5"/>
<polygon fill="black" stroke="black" points="1842.15,-970 1832.2,-973.64 1842.25,-977 1842.15,-970"/>
<text text-anchor="middle" x="3068.5" y="-492.8" font-family="Times,serif" font-size="14.00">0.0</text>
</g>
<!-- s10&#45;&gt;s1 -->
<g id="edge26" class="edge">
<title>s10&#45;&gt;s1</title>
<path fill="none" stroke="black" d="M1412.59,-19.27C1267.24,-20.81 585.47,-29.27 376,-54 91.59,-87.58 191,-53.47 191,-104 191,-236.5 191,-236.5 191,-236.5 191,-427.3 202.45,-497.11 323,-645 398.56,-737.7 463.09,-705.29 554,-783 569.83,-796.53 566.75,-807.34 584,-819 623.47,-845.69 639.16,-843.28 686,-852 744.42,-862.88 1154.73,-880.31 1281.67,-885.5"/>
<polygon fill="black" stroke="black" points="1281.9,-889.01 1292.03,-885.92 1282.18,-882.01 1281.9,-889.01"/>
<text text-anchor="middle" x="237.5" y="-449.3" font-family="Times,serif" font-size="14.00">0.001</text>
</g>
<!-- s10&#45;&gt;s10 -->
<g id="edge27" class="edge">
<title>s10&#45;&gt;s10</title>
<path fill="none" stroke="black" d="M1464.69,-25.75C1475.74,-26.49 1485.3,-23.91 1485.3,-18 1485.3,-14.03 1480.98,-11.56 1474.8,-10.59"/>
<polygon fill="black" stroke="black" points="1474.81,-7.09 1464.69,-10.25 1474.57,-14.09 1474.81,-7.09"/>
<text text-anchor="middle" x="1505.8" y="-14.3" font-family="Times,serif" font-size="14.00">0.962</text>
</g>
<!-- s10&#45;&gt;s11 -->
<g id="edge28" class="edge">
<title>s10&#45;&gt;s11</title>
<path fill="none" stroke="black" d="M1413.92,-23.68C1334.23,-37.97 1093.8,-81.08 1002.08,-97.53"/>
<polygon fill="black" stroke="black" points="1001.38,-94.1 992.16,-99.31 1002.62,-100.99 1001.38,-94.1"/>
<text text-anchor="middle" x="1243.5" y="-57.8" font-family="Times,serif" font-size="14.00">0.0</text>
</g>
<!-- s10&#45;&gt;s2 -->
<g id="edge29" class="edge">
<title>s10&#45;&gt;s2</title>
<path fill="none" stroke="black" d="M1427.08,-34.1C1416.63,-47.19 1402.46,-67.12 1395,-87 1385.63,-111.95 1382.4,-142.34 1381.35,-163.81"/>
<polygon fill="black" stroke="black" points="1377.85,-163.74 1380.98,-173.86 1384.84,-164 1377.85,-163.74"/>
<text text-anchor="middle" x="1406.5" y="-101.3" font-family="Times,serif" font-size="14.00">0.0</text>
</g>
<!-- s10&#45;&gt;s3 -->
<g id="edge30" class="edge">
<title>s10&#45;&gt;s3</title>
<path fill="none" stroke="black" d="M1467.32,-19.47C1596.31,-21.78 2139.35,-32.75 2168,-54 2235.74,-104.25 2245.06,-183.79 2185,-243 2157.18,-270.43 2043.26,-276.47 1983.3,-277.73"/>
<polygon fill="black" stroke="black" points="1983.05,-274.23 1973.12,-277.91 1983.18,-281.23 1983.05,-274.23"/>
<text text-anchor="middle" x="2244.5" y="-144.8" font-family="Times,serif" font-size="14.00">0.009</text>
</g>
<!-- s10&#45;&gt;s4 -->
<g id="edge31" class="edge">
<title>s10&#45;&gt;s4</title>
<path fill="none" stroke="black" d="M1467.37,-19.13C1594.35,-19.91 2122.71,-24.87 2190,-54 2237.93,-74.75 2251.22,-91.89 2269,-141 2294.03,-210.13 2271.93,-251.73 2214,-297 2204.22,-304.64 1839.35,-347.23 1721.39,-360.83"/>
<polygon fill="black" stroke="black" points="1720.93,-357.36 1711.4,-361.98 1721.73,-364.31 1720.93,-357.36"/>
<text text-anchor="middle" x="2299.5" y="-188.3" font-family="Times,serif" font-size="14.00">0.003</text>
</g>
<!-- s10&#45;&gt;s5 -->
<g id="edge32" class="edge">
<title>s10&#45;&gt;s5</title>
<path fill="none" stroke="black" d="M1467.59,-19.4C1600.65,-21.44 2172.84,-31.45 2249,-54 2333.92,-79.15 2393.15,-123.75 2373,-210 2329.06,-398.08 2300.44,-379.49 2270,-417 2265.25,-422.86 2259.37,-428.41 2253.51,-433.29"/>
<polygon fill="black" stroke="black" points="2251.32,-430.57 2245.63,-439.51 2255.65,-436.06 2251.32,-430.57"/>
<text text-anchor="middle" x="2388.5" y="-231.8" font-family="Times,serif" font-size="14.00">0.013</text>
</g>
<!-- s10&#45;&gt;s6 -->
<g id="edge33" class="edge">
<title>s10&#45;&gt;s6</title>
<path fill="none" stroke="black" d="M1412.75,-19.8C1303.29,-23.68 898.11,-44.46 827,-141 730.67,-271.77 858.4,-368.02 984,-471 1016.66,-497.78 1061.64,-517.01 1092.15,-528.04"/>
<polygon fill="black" stroke="black" points="1091.32,-531.46 1101.91,-531.47 1093.64,-524.85 1091.32,-531.46"/>
<text text-anchor="middle" x="831.5" y="-275.3" font-family="Times,serif" font-size="14.00">0.005</text>
</g>
<!-- s10&#45;&gt;s7 -->
<g id="edge34" class="edge">
<title>s10&#45;&gt;s7</title>
<path fill="none" stroke="black" d="M1412.59,-19.13C1301.25,-20.07 883.3,-27.56 768,-87 714.13,-114.77 701.8,-127.44 663,-174 533.18,-329.76 561.87,-270.61 584,-330 612.93,-407.65 641.22,-419.32 706,-471 730.4,-490.47 739.91,-490.38 768,-504 785.91,-512.68 792.42,-510.99 809,-522 828.38,-534.87 828.03,-544.54 847,-558 880.56,-581.82 923.71,-601.6 952.76,-613.57"/>
<polygon fill="black" stroke="black" points="951.45,-616.82 962.03,-617.33 954.07,-610.33 951.45,-616.82"/>
<text text-anchor="middle" x="604.5" y="-318.8" font-family="Times,serif" font-size="14.00">0.005</text>
</g>
<!-- s10&#45;&gt;s8 -->
<g id="edge35" class="edge">
<title>s10&#45;&gt;s8</title>
<path fill="none" stroke="black" d="M1412.39,-18.89C1285.04,-18.76 754.25,-22.16 604,-87 476,-142.24 408.78,-138.08 343,-261 308.36,-325.72 310.83,-534.75 358,-591 380.3,-617.6 400.63,-599.46 434,-609 482.24,-622.8 493.31,-629.41 541,-645 587.09,-660.07 597.36,-668.95 645,-678 821.12,-711.44 1036.53,-713.97 1121.75,-713.5"/>
<polygon fill="black" stroke="black" points="1121.98,-716.99 1131.96,-713.42 1121.93,-709.99 1121.98,-716.99"/>
<text text-anchor="middle" x="334.5" y="-362.3" font-family="Times,serif" font-size="14.00">0.0</text>
</g>
<!-- s10&#45;&gt;s9 -->
<g id="edge36" class="edge">
<title>s10&#45;&gt;s9</title>
<path fill="none" stroke="black" d="M1467.53,-18.82C1651.3,-17.74 2696.92,-13.42 2832,-54 2872.16,-66.06 2912,-62.07 2912,-104 2912,-497.5 2912,-497.5 2912,-497.5 2912,-613.51 2769.57,-540.43 2676,-609 2668.48,-614.51 2570.17,-727.52 2562,-732 2490.31,-771.34 2461.89,-753.06 2381,-765 2282.95,-779.47 2166.63,-791.19 2108.66,-796.66"/>
<polygon fill="black" stroke="black" points="2108.16,-793.19 2098.53,-797.6 2108.81,-800.16 2108.16,-793.19"/>
<text text-anchor="middle" x="2923.5" y="-405.8" font-family="Times,serif" font-size="14.00">0.0</text>
</g>
<!-- s11&#45;&gt;s0 -->
<g id="edge37" class="edge">
<title>s11&#45;&gt;s0</title>
<path fill="none" stroke="black" d="M938.9,-108.23C898.59,-111.54 820.45,-117.9 754,-123 699.35,-127.19 560.19,-124.24 508,-141 405.34,-173.97 168.98,-337.95 122,-435 98.14,-484.28 107.24,-507.76 129,-558 212.04,-749.71 269.16,-793.19 445,-906 485.82,-932.19 501.13,-931.23 549,-939 683.26,-960.8 1641.26,-923.15 1773,-957 1774.23,-957.32 1775.47,-957.69 1776.71,-958.11"/>
<polygon fill="black" stroke="black" points="1775.4,-961.35 1785.97,-962.02 1778.12,-954.91 1775.4,-961.35"/>
<text text-anchor="middle" x="140.5" y="-536.3" font-family="Times,serif" font-size="14.00">0.0</text>
</g>
<!-- s11&#45;&gt;s1 -->
<g id="edge38" class="edge">
<title>s11&#45;&gt;s1</title>
<path fill="none" stroke="black" d="M938.96,-108.17C844.3,-115.78 533.6,-140.78 533,-141 521.19,-145.33 495.23,-164.48 487,-174 372.1,-306.89 285.08,-481.11 307,-558 319.48,-601.77 325,-617.17 361,-645 382.35,-661.51 394.7,-651.26 419,-663 467.95,-686.65 474.94,-701.59 520,-732 531.95,-740.07 535.18,-741.73 547,-750 589.46,-779.71 593.7,-797.83 641,-819 705.68,-847.95 726.8,-842.27 797,-852 977.72,-877.05 1196.22,-884.34 1281.95,-886.31"/>
<polygon fill="black" stroke="black" points="1281.89,-889.81 1291.97,-886.53 1282.05,-882.82 1281.89,-889.81"/>
<text text-anchor="middle" x="320.5" y="-492.8" font-family="Times,serif" font-size="14.00">0.0</text>
</g>
<!-- s11&#45;&gt;s10 -->
<g id="edge39" class="edge">
<title>s11&#45;&gt;s10</title>
<path fill="none" stroke="black" d="M989.87,-96.22C1024.39,-85.24 1090.44,-65.29 1148,-54 1238.61,-36.23 1346.92,-26.1 1402.7,-21.68"/>
<polygon fill="black" stroke="black" points="1403.12,-25.16 1412.82,-20.9 1402.58,-18.18 1403.12,-25.16"/>
<text text-anchor="middle" x="1159.5" y="-57.8" font-family="Times,serif" font-size="14.00">0.0</text>
</g>
<!-- s11&#45;&gt;s11 -->
<g id="edge40" class="edge">
<title>s11&#45;&gt;s11</title>
<path fill="none" stroke="black" d="M990.69,-112.75C1001.74,-113.49 1011.3,-110.91 1011.3,-105 1011.3,-101.03 1006.98,-98.56 1000.8,-97.59"/>
<polygon fill="black" stroke="black" points="1000.81,-94.09 990.69,-97.25 1000.57,-101.09 1000.81,-94.09"/>
<text text-anchor="middle" x="1031.8" y="-101.3" font-family="Times,serif" font-size="14.00">0.988</text>
</g>
<!-- s11&#45;&gt;s2 -->
<g id="edge41" class="edge">
<title>s11&#45;&gt;s2</title>
<path fill="none" stroke="black" d="M993.31,-106.73C1045.94,-108.68 1164.72,-115.75 1261,-141 1292.85,-149.35 1327.37,-164.42 1351.18,-175.84"/>
<polygon fill="black" stroke="black" points="1349.85,-179.09 1360.37,-180.33 1352.92,-172.8 1349.85,-179.09"/>
<text text-anchor="middle" x="1325.5" y="-144.8" font-family="Times,serif" font-size="14.00">0.001</text>
</g>
<!-- s11&#45;&gt;s3 -->
<g id="edge42" class="edge">
<title>s11&#45;&gt;s3</title>
<path fill="none" stroke="black" d="M993.19,-107.22C1059.48,-110.16 1234.71,-117.81 1381,-123 1414.38,-124.18 1951.54,-127.28 1982,-141 2012.65,-154.81 2025.38,-178.74 2013,-210 2005.02,-230.15 1987.71,-247.46 1972.68,-259.57"/>
<polygon fill="black" stroke="black" points="1970.44,-256.88 1964.64,-265.75 1974.7,-262.43 1970.44,-256.88"/>
<text text-anchor="middle" x="2028.5" y="-188.3" font-family="Times,serif" font-size="14.00">0.0</text>
</g>
<!-- s11&#45;&gt;s4 -->
<g id="edge43" class="edge">
<title>s11&#45;&gt;s4</title>
<path fill="none" stroke="black" d="M967.59,-123.23C972.98,-169.89 995.31,-297.37 1080,-330 1093.31,-335.13 1518.38,-356.69 1647.91,-363.16"/>
<polygon fill="black" stroke="black" points="1647.95,-366.67 1658.11,-363.67 1648.3,-359.67 1647.95,-366.67"/>
<text text-anchor="middle" x="1009.5" y="-231.8" font-family="Times,serif" font-size="14.00">0.0</text>
</g>
<!-- s11&#45;&gt;s5 -->
<g id="edge44" class="edge">
<title>s11&#45;&gt;s5</title>
<path fill="none" stroke="black" d="M993.19,-107.23C1059.47,-110.2 1234.71,-117.9 1381,-123 1450.43,-125.42 1939.75,-120.09 2006,-141 2073,-162.15 2236.68,-253.14 2270,-315 2290.05,-352.23 2264.65,-400.28 2245.22,-428.46"/>
<polygon fill="black" stroke="black" points="2242.18,-426.7 2239.19,-436.87 2247.86,-430.78 2242.18,-426.7"/>
<text text-anchor="middle" x="2277.5" y="-275.3" font-family="Times,serif" font-size="14.00">0.003</text>
</g>
<!-- s11&#45;&gt;s6 -->
<g id="edge45" class="edge">
<title>s11&#45;&gt;s6</title>
<path fill="none" stroke="black" d="M965.45,-123.19C965.17,-144.02 965.94,-180.06 973,-210 982.45,-250.1 986.33,-260.27 1005,-297 1030.98,-348.12 1053.56,-351.11 1080,-402 1098.77,-438.13 1112.23,-483.5 1119.57,-511.88"/>
<polygon fill="black" stroke="black" points="1116.24,-513.03 1122.08,-521.87 1123.03,-511.32 1116.24,-513.03"/>
<text text-anchor="middle" x="1037.5" y="-318.8" font-family="Times,serif" font-size="14.00">0.0</text>
</g>
<!-- s11&#45;&gt;s7 -->
<g id="edge46" class="edge">
<title>s11&#45;&gt;s7</title>
<path fill="none" stroke="black" d="M940.93,-112.78C874.13,-132.36 699.26,-194.19 734,-297 757.99,-368 909.59,-541.79 964.86,-603.67"/>
<polygon fill="black" stroke="black" points="962.43,-606.2 971.71,-611.31 967.64,-601.52 962.43,-606.2"/>
<text text-anchor="middle" x="804.5" y="-362.3" font-family="Times,serif" font-size="14.00">0.006</text>
</g>
<!-- s11&#45;&gt;s8 -->
<g id="edge47" class="edge">
<title>s11&#45;&gt;s8</title>
<path fill="none" stroke="black" d="M939.5,-109.53C910.64,-113.27 863.11,-119.17 822,-123 763.45,-128.45 609.74,-113.07 558,-141 499.1,-172.8 495.67,-200.52 467,-261 384.36,-435.31 419.6,-370.68 433,-417 478.49,-574.29 536.22,-630.79 693,-678 773.03,-702.1 1026.07,-710.08 1121.81,-712.27"/>
<polygon fill="black" stroke="black" points="1121.82,-715.78 1131.9,-712.5 1121.98,-708.78 1121.82,-715.78"/>
<text text-anchor="middle" x="453.5" y="-405.8" font-family="Times,serif" font-size="14.00">0.001</text>
</g>
<!-- s11&#45;&gt;s9 -->
<g id="edge48" class="edge">
<title>s11&#45;&gt;s9</title>
<path fill="none" stroke="black" d="M993.19,-107.24C1059.47,-110.24 1234.7,-118 1381,-123 1527.19,-127.99 1895.44,-112.93 2039,-141 2114.6,-155.78 2128.31,-177.18 2198,-210 2327.86,-271.16 2414.4,-225.98 2490,-348 2527.53,-408.57 2481.59,-438.73 2453,-504 2416.66,-586.94 2402.28,-606.28 2347,-678 2316.53,-717.53 2319.26,-740.11 2276,-765 2231.92,-790.36 2213.11,-774.33 2163,-783 2144.77,-786.15 2124.54,-789.91 2107.79,-793.09"/>
<polygon fill="black" stroke="black" points="2107.02,-789.67 2097.86,-794.98 2108.33,-796.54 2107.02,-789.67"/>
<text text-anchor="middle" x="2510.5" y="-449.3" font-family="Times,serif" font-size="14.00">0.001</text>
</g>
<!-- s2&#45;&gt;s0 -->
<g id="edge49" class="edge">
<title>s2&#45;&gt;s0</title>
<path fill="none" stroke="black" d="M1407.59,-195.18C1452.26,-198.78 1545.23,-205.95 1624,-210 1866.92,-222.49 1930.04,-194.78 2171,-228 2198.66,-231.81 2204.72,-237.04 2232,-243 2398.22,-279.33 2452.32,-246.35 2608,-315 2667.13,-341.07 2802.89,-436.81 2841,-489 2874.07,-534.29 2866.54,-554.56 2880,-609 2888.03,-641.48 2898.91,-663.51 2892,-678 2850.78,-764.46 2639.54,-907.76 2549,-939 2481.99,-962.12 1983.87,-971.31 1842.38,-973.47"/>
<polygon fill="black" stroke="black" points="1842.01,-969.98 1832.06,-973.63 1842.11,-976.98 1842.01,-969.98"/>
<text text-anchor="middle" x="2895.5" y="-579.8" font-family="Times,serif" font-size="14.00">0.051</text>
</g>
<!-- s2&#45;&gt;s1 -->
<g id="edge50" class="edge">
<title>s2&#45;&gt;s1</title>
<path fill="none" stroke="black" d="M1354.39,-196.17C1310.62,-202.42 1222.09,-219.52 1160,-261 971.76,-386.76 933.56,-472.92 895,-696 885.43,-751.34 881.2,-782.63 924,-819 943.6,-835.66 955.35,-826.89 979,-837 991.98,-842.55 993.52,-847.8 1007,-852 1102.98,-881.88 1222.6,-886.87 1281.98,-887.33"/>
<polygon fill="black" stroke="black" points="1281.99,-890.83 1292.01,-887.37 1282.02,-883.83 1281.99,-890.83"/>
<text text-anchor="middle" x="956.5" y="-536.3" font-family="Times,serif" font-size="14.00">0.003</text>
</g>
<!-- s2&#45;&gt;s10 -->
<g id="edge51" class="edge">
<title>s2&#45;&gt;s10</title>
<path fill="none" stroke="black" d="M1391.36,-175.14C1399.67,-161.74 1411.07,-141.79 1418,-123 1427.34,-97.67 1433.19,-67.33 1436.49,-45.98"/>
<polygon fill="black" stroke="black" points="1439.97,-46.39 1437.95,-35.99 1433.04,-45.38 1439.97,-46.39"/>
<text text-anchor="middle" x="1448.5" y="-101.3" font-family="Times,serif" font-size="14.00">0.001</text>
</g>
<!-- s2&#45;&gt;s11 -->
<g id="edge52" class="edge">
<title>s2&#45;&gt;s11</title>
<path fill="none" stroke="black" d="M1355.94,-185.02C1307.31,-173.45 1201.68,-148.47 1165,-141 1108.36,-129.47 1042.19,-118.28 1002.22,-111.77"/>
<polygon fill="black" stroke="black" points="1002.59,-108.29 992.16,-110.14 1001.47,-115.2 1002.59,-108.29"/>
<text text-anchor="middle" x="1239.5" y="-144.8" font-family="Times,serif" font-size="14.00">0.0</text>
</g>
<!-- s2&#45;&gt;s2 -->
<g id="edge53" class="edge">
<title>s2&#45;&gt;s2</title>
<path fill="none" stroke="black" d="M1405.53,-199.75C1416.51,-200.49 1426,-197.91 1426,-192 1426,-188.03 1421.72,-185.56 1415.57,-184.59"/>
<polygon fill="black" stroke="black" points="1415.65,-181.09 1405.53,-184.25 1415.41,-188.09 1415.65,-181.09"/>
<text text-anchor="middle" x="1446.5" y="-188.3" font-family="Times,serif" font-size="14.00">0.914</text>
</g>
<!-- s2&#45;&gt;s3 -->
<g id="edge54" class="edge">
<title>s2&#45;&gt;s3</title>
<path fill="none" stroke="black" d="M1407.17,-196.94C1498.62,-210.69 1804.13,-256.66 1909.73,-272.54"/>
<polygon fill="black" stroke="black" points="1909.47,-276.04 1919.88,-274.07 1910.51,-269.12 1909.47,-276.04"/>
<text text-anchor="middle" x="1717.5" y="-231.8" font-family="Times,serif" font-size="14.00">0.002</text>
</g>
<!-- s2&#45;&gt;s4 -->
<g id="edge55" class="edge">
<title>s2&#45;&gt;s4</title>
<path fill="none" stroke="black" d="M1401.02,-204.33C1453.5,-234.02 1595.19,-314.19 1656.3,-348.76"/>
<polygon fill="black" stroke="black" points="1654.63,-351.84 1665.05,-353.71 1658.07,-345.74 1654.63,-351.84"/>
<text text-anchor="middle" x="1583.5" y="-275.3" font-family="Times,serif" font-size="14.00">0.009</text>
</g>
<!-- s2&#45;&gt;s5 -->
<g id="edge56" class="edge">
<title>s2&#45;&gt;s5</title>
<path fill="none" stroke="black" d="M1407.74,-194.93C1498.8,-201.51 1793.52,-222.96 1836,-228 1927.64,-238.88 1953.7,-231.08 2041,-261 2041.3,-261.1 2199.81,-347.75 2200,-348 2217.23,-370.1 2223.53,-402.07 2225.8,-424.72"/>
<polygon fill="black" stroke="black" points="2222.32,-425.02 2226.61,-434.7 2229.29,-424.46 2222.32,-425.02"/>
<text text-anchor="middle" x="2187.5" y="-318.8" font-family="Times,serif" font-size="14.00">0.003</text>
</g>
<!-- s2&#45;&gt;s6 -->
<g id="edge57" class="edge">
<title>s2&#45;&gt;s6</title>
<path fill="none" stroke="black" d="M1374.48,-209.62C1366.06,-230.49 1350.52,-267.19 1334,-297 1287.7,-380.5 1273.57,-401.59 1208,-471 1190.8,-489.2 1168.86,-507.17 1152,-520.06"/>
<polygon fill="black" stroke="black" points="1149.58,-517.5 1143.7,-526.32 1153.79,-523.1 1149.58,-517.5"/>
<text text-anchor="middle" x="1316.5" y="-362.3" font-family="Times,serif" font-size="14.00">0.0</text>
</g>
<!-- s2&#45;&gt;s7 -->
<g id="edge58" class="edge">
<title>s2&#45;&gt;s7</title>
<path fill="none" stroke="black" d="M1363.72,-206.14C1346.3,-219.54 1318.8,-241.14 1296,-261 1278.46,-276.28 1275.98,-282.24 1258,-297 1197.61,-346.57 1169.77,-344.38 1117,-402 1074.04,-448.91 1072.55,-467.96 1039,-522 1024.28,-545.7 1019.75,-551.19 1007,-576 1003.1,-583.59 999.22,-592.02 995.83,-599.77"/>
<polygon fill="black" stroke="black" points="992.56,-598.53 991.84,-609.1 998.99,-601.28 992.56,-598.53"/>
<text text-anchor="middle" x="1137.5" y="-405.8" font-family="Times,serif" font-size="14.00">0.001</text>
</g>
<!-- s2&#45;&gt;s8 -->
<g id="edge59" class="edge">
<title>s2&#45;&gt;s8</title>
<path fill="none" stroke="black" d="M1354,-193.94C1286.36,-196.63 1111.29,-205.58 1058,-228 992.22,-255.67 997.88,-298.19 934,-330 903.31,-345.28 889.13,-331.66 859,-348 838.55,-359.09 840.32,-371.03 821,-384 775.25,-414.71 739.19,-389.58 708,-435 691.12,-459.57 669.93,-605.68 712,-645 771.15,-700.27 1025.18,-710.62 1121.64,-712.56"/>
<polygon fill="black" stroke="black" points="1121.75,-716.06 1131.81,-712.74 1121.87,-709.06 1121.75,-716.06"/>
<text text-anchor="middle" x="719.5" y="-449.3" font-family="Times,serif" font-size="14.00">0.0</text>
</g>
<!-- s2&#45;&gt;s9 -->
<g id="edge60" class="edge">
<title>s2&#45;&gt;s9</title>
<path fill="none" stroke="black" d="M1407.59,-195.16C1452.27,-198.72 1545.24,-205.85 1624,-210 1736.8,-215.94 2020.55,-209.62 2132,-228 2154.89,-231.78 2159.55,-237.15 2182,-243 2217.69,-252.3 2229,-246.72 2263,-261 2322.74,-286.1 2349.82,-290.66 2380,-348 2446.34,-474.06 2414.43,-454.06 2404,-504 2395.37,-545.3 2354.81,-645.42 2328,-678 2319.07,-688.85 2311.95,-686.07 2302,-696 2275.55,-722.39 2285.32,-744.64 2254,-765 2252.46,-766 2160.31,-783.42 2107.74,-793.3"/>
<polygon fill="black" stroke="black" points="2106.98,-789.88 2097.8,-795.17 2108.27,-796.76 2106.98,-789.88"/>
<text text-anchor="middle" x="2428.5" y="-492.8" font-family="Times,serif" font-size="14.00">0.016</text>
</g>
<!-- s3&#45;&gt;s0 -->
<g id="edge61" class="edge">
<title>s3&#45;&gt;s0</title>
<path fill="none" stroke="black" d="M1972.96,-281.19C2034.04,-284.19 2187.47,-293.41 2314,-315 2397.75,-329.29 2611.22,-381.23 2677,-435 2786.47,-524.48 2865.33,-611.73 2791,-732 2713.3,-857.71 2305.36,-918.53 2159,-939 2043.7,-955.13 1906.26,-966.48 1841.8,-971.35"/>
<polygon fill="black" stroke="black" points="1841.44,-967.86 1831.73,-972.1 1841.97,-974.84 1841.44,-967.86"/>
<text text-anchor="middle" x="2831.5" y="-623.3" font-family="Times,serif" font-size="14.00">0.0</text>
</g>
<!-- s3&#45;&gt;s1 -->
<g id="edge62" class="edge">
<title>s3&#45;&gt;s1</title>
<path fill="none" stroke="black" d="M1942.57,-296.97C1938.36,-317.58 1930.93,-353.4 1924,-384 1903.09,-476.31 1899.34,-499.81 1874,-591 1867.26,-615.24 1868.69,-622.72 1857,-645 1852.29,-653.98 1848.66,-654.59 1843,-663 1798.32,-729.42 1819,-773.71 1753,-819 1688.52,-863.26 1448.79,-880.25 1356.01,-885.25"/>
<polygon fill="black" stroke="black" points="1355.76,-881.76 1345.95,-885.78 1356.12,-888.75 1355.76,-881.76"/>
<text text-anchor="middle" x="1889.5" y="-579.8" font-family="Times,serif" font-size="14.00">0.0</text>
</g>
<!-- s3&#45;&gt;s10 -->
<g id="edge63" class="edge">
<title>s3&#45;&gt;s10</title>
<path fill="none" stroke="black" d="M1969.97,-270.39C2026.21,-251.35 2158.37,-198.97 2110,-141 2028.13,-42.88 1606.78,-23.48 1477.66,-19.81"/>
<polygon fill="black" stroke="black" points="1477.57,-16.31 1467.48,-19.54 1477.38,-23.31 1477.57,-16.31"/>
<text text-anchor="middle" x="2138.5" y="-144.8" font-family="Times,serif" font-size="14.00">0.001</text>
</g>
<!-- s3&#45;&gt;s11 -->
<g id="edge64" class="edge">
<title>s3&#45;&gt;s11</title>
<path fill="none" stroke="black" d="M1925.52,-266.81C1903.88,-255.44 1868.45,-238.1 1836,-228 1524.66,-131.05 1126.55,-110.94 1003.75,-106.95"/>
<polygon fill="black" stroke="black" points="1003.5,-103.44 993.4,-106.63 1003.28,-110.44 1003.5,-103.44"/>
<text text-anchor="middle" x="1792.5" y="-188.3" font-family="Times,serif" font-size="14.00">0.029</text>
</g>
<!-- s3&#45;&gt;s2 -->
<g id="edge65" class="edge">
<title>s3&#45;&gt;s2</title>
<path fill="none" stroke="black" d="M1921.74,-270.85C1883.76,-259.93 1807.79,-239.19 1742,-228 1624.69,-208.04 1483.85,-198.48 1418.15,-194.84"/>
<polygon fill="black" stroke="black" points="1418.07,-191.33 1407.89,-194.28 1417.69,-198.32 1418.07,-191.33"/>
<text text-anchor="middle" x="1820.5" y="-231.8" font-family="Times,serif" font-size="14.00">0.0</text>
</g>
<!-- s3&#45;&gt;s3 -->
<g id="edge66" class="edge">
<title>s3&#45;&gt;s3</title>
<path fill="none" stroke="black" d="M1970.53,-286.75C1981.51,-287.49 1991,-284.91 1991,-279 1991,-275.03 1986.72,-272.56 1980.57,-271.59"/>
<polygon fill="black" stroke="black" points="1980.65,-268.09 1970.53,-271.25 1980.41,-275.09 1980.65,-268.09"/>
<text text-anchor="middle" x="2011.5" y="-275.3" font-family="Times,serif" font-size="14.00">0.935</text>
</g>
<!-- s3&#45;&gt;s4 -->
<g id="edge67" class="edge">
<title>s3&#45;&gt;s4</title>
<path fill="none" stroke="black" d="M1918.94,-279.78C1860.13,-279.9 1723.43,-283.64 1692,-315 1686.07,-320.92 1683.59,-329.39 1682.81,-337.69"/>
<polygon fill="black" stroke="black" points="1679.31,-337.82 1682.61,-347.89 1686.31,-337.96 1679.31,-337.82"/>
<text text-anchor="middle" x="1703.5" y="-318.8" font-family="Times,serif" font-size="14.00">0.0</text>
</g>
<!-- s3&#45;&gt;s5 -->
<g id="edge68" class="edge">
<title>s3&#45;&gt;s5</title>
<path fill="none" stroke="black" d="M1972.41,-283C2000.85,-287.08 2046.74,-296.14 2082,-315 2122.52,-336.68 2122.23,-356.44 2159,-384 2171.14,-393.1 2176.72,-391.86 2188,-402 2196.35,-409.5 2204.24,-418.97 2210.71,-427.63"/>
<polygon fill="black" stroke="black" points="2207.99,-429.85 2216.67,-435.94 2213.68,-425.77 2207.99,-429.85"/>
<text text-anchor="middle" x="2179.5" y="-362.3" font-family="Times,serif" font-size="14.00">0.004</text>
</g>
<!-- s3&#45;&gt;s6 -->
<g id="edge69" class="edge">
<title>s3&#45;&gt;s6</title>
<path fill="none" stroke="black" d="M1919.2,-281.21C1827.98,-285.45 1532.94,-300.19 1493,-315 1468.7,-324.01 1421.55,-371.24 1399,-384 1380.97,-394.2 1374.41,-392.49 1356,-402 1331.34,-414.73 1323.89,-416.73 1303,-435 1273.06,-461.19 1279.23,-482.13 1246,-504 1220.83,-520.57 1187.65,-529.46 1162.57,-534.13"/>
<polygon fill="black" stroke="black" points="1161.96,-530.68 1152.7,-535.83 1163.15,-537.58 1161.96,-530.68"/>
<text text-anchor="middle" x="1367.5" y="-405.8" font-family="Times,serif" font-size="14.00">0.0</text>
</g>
<!-- s3&#45;&gt;s7 -->
<g id="edge70" class="edge">
<title>s3&#45;&gt;s7</title>
<path fill="none" stroke="black" d="M1919.14,-281.38C1824.75,-286.32 1511.63,-303.41 1468,-315 1435.15,-323.73 1429.23,-332.46 1399,-348 1363.95,-366.01 1122.43,-499.61 1090,-522 1058.81,-543.53 1050.49,-548.89 1024,-576 1016.15,-584.03 1008.37,-593.6 1001.84,-602.21"/>
<polygon fill="black" stroke="black" points="998.91,-600.28 995.78,-610.4 1004.54,-604.44 998.91,-600.28"/>
<text text-anchor="middle" x="1255" y="-449.3" font-family="Times,serif" font-size="14.00">0.03</text>
</g>
<!-- s3&#45;&gt;s8 -->
<g id="edge71" class="edge">
<title>s3&#45;&gt;s8</title>
<path fill="none" stroke="black" d="M1919.08,-280.49C1891.39,-282.45 1848.77,-289.75 1823,-315 1760.23,-376.49 1833.18,-448.58 1765,-504 1731.23,-531.45 1611.4,-508.61 1570,-522 1537.58,-532.49 1337.59,-665.24 1306,-678 1269.66,-692.67 1225.67,-702.14 1195.34,-707.48"/>
<polygon fill="black" stroke="black" points="1194.49,-704.07 1185.22,-709.2 1195.66,-710.97 1194.49,-704.07"/>
<text text-anchor="middle" x="1790.5" y="-492.8" font-family="Times,serif" font-size="14.00">0.0</text>
</g>
<!-- s3&#45;&gt;s9 -->
<g id="edge72" class="edge">
<title>s3&#45;&gt;s9</title>
<path fill="none" stroke="black" d="M1952.1,-296.56C1961.15,-319.08 1980.11,-359.37 2008,-384 2022.92,-397.17 2037.69,-385.63 2049,-402 2071.96,-435.23 2064.65,-724.75 2068,-765 2068.21,-767.56 2068.46,-770.22 2068.73,-772.88"/>
<polygon fill="black" stroke="black" points="2065.27,-773.37 2069.84,-782.93 2072.23,-772.61 2065.27,-773.37"/>
<text text-anchor="middle" x="2076.5" y="-536.3" font-family="Times,serif" font-size="14.00">0.0</text>
</g>
<!-- s4&#45;&gt;s0 -->
<g id="edge73" class="edge">
<title>s4&#45;&gt;s0</title>
<path fill="none" stroke="black" d="M1710.32,-372.45C1743.08,-380.7 1800.1,-399.34 1835,-435 1886.51,-487.62 1901.9,-505.16 1922,-576 1923.82,-582.41 1922.37,-584.34 1922,-591 1920.22,-623.15 1916.42,-630.89 1914,-663 1912.33,-685.18 1912,-690.76 1912,-713 1912,-889 1912,-889 1912,-889 1912,-926.89 1870.35,-950.59 1839.02,-963.05"/>
<polygon fill="black" stroke="black" points="1837.41,-959.92 1829.28,-966.71 1839.87,-966.47 1837.41,-959.92"/>
<text text-anchor="middle" x="1934.5" y="-666.8" font-family="Times,serif" font-size="14.00">0.017</text>
</g>
<!-- s4&#45;&gt;s1 -->
<g id="edge74" class="edge">
<title>s4&#45;&gt;s1</title>
<path fill="none" stroke="black" d="M1697.1,-382.12C1701.07,-387.98 1704.97,-394.97 1707,-402 1715.56,-431.72 1718.33,-447.7 1698,-471 1680.25,-491.34 1656.01,-467.27 1640,-489 1636.05,-494.37 1636.26,-498.48 1640,-504 1652.08,-521.84 1672.92,-504.16 1685,-522 1693.97,-535.25 1688.31,-542.35 1685,-558 1667.51,-640.74 1670.87,-675.44 1608,-732 1588.56,-749.48 1574.95,-737.48 1552,-750 1509.59,-773.13 1507.26,-790.84 1468,-819 1445.45,-835.17 1439.95,-839.85 1415,-852 1394.99,-861.75 1371.54,-870.34 1352.82,-876.58"/>
<polygon fill="black" stroke="black" points="1351.66,-873.28 1343.24,-879.71 1353.83,-879.93 1351.66,-873.28"/>
<text text-anchor="middle" x="1694.5" y="-623.3" font-family="Times,serif" font-size="14.00">0.002</text>
</g>
<!-- s4&#45;&gt;s10 -->
<g id="edge75" class="edge">
<title>s4&#45;&gt;s10</title>
<path fill="none" stroke="black" d="M1711.95,-363.25C1773.01,-359.09 1926.52,-347.67 2054,-330 2090.7,-324.91 2099.49,-321.3 2136,-315 2185.25,-306.5 2203.23,-321.12 2247,-297 2303.49,-265.88 2342.93,-235.65 2324,-174 2303.11,-105.97 2285.35,-76.96 2218,-54 2147.62,-30.01 1623.66,-21.4 1477.66,-19.46"/>
<polygon fill="black" stroke="black" points="1477.47,-15.96 1467.43,-19.32 1477.38,-22.96 1477.47,-15.96"/>
<text text-anchor="middle" x="2348.5" y="-188.3" font-family="Times,serif" font-size="14.00">0.004</text>
</g>
<!-- s4&#45;&gt;s11 -->
<g id="edge76" class="edge">
<title>s4&#45;&gt;s11</title>
<path fill="none" stroke="black" d="M1658.08,-363.76C1563.07,-359.05 1244.29,-340.28 1153,-297 1073.7,-259.4 1009.51,-173.11 981.38,-130.6"/>
<polygon fill="black" stroke="black" points="984.17,-128.46 975.78,-121.98 978.3,-132.27 984.17,-128.46"/>
<text text-anchor="middle" x="1096.5" y="-231.8" font-family="Times,serif" font-size="14.00">0.018</text>
</g>
<!-- s4&#45;&gt;s2 -->
<g id="edge77" class="edge">
<title>s4&#45;&gt;s2</title>
<path fill="none" stroke="black" d="M1658.35,-362.59C1613.17,-357.38 1520.27,-341.67 1457,-297 1428.26,-276.71 1406.14,-242.08 1393.36,-218.4"/>
<polygon fill="black" stroke="black" points="1396.34,-216.55 1388.62,-209.3 1390.14,-219.79 1396.34,-216.55"/>
<text text-anchor="middle" x="1477.5" y="-275.3" font-family="Times,serif" font-size="14.00">0.042</text>
</g>
<!-- s4&#45;&gt;s3 -->
<g id="edge78" class="edge">
<title>s4&#45;&gt;s3</title>
<path fill="none" stroke="black" d="M1698.48,-349.84C1709.55,-338.4 1726.24,-323.3 1744,-315 1797.65,-289.92 1866.9,-282.66 1908.8,-280.64"/>
<polygon fill="black" stroke="black" points="1908.99,-284.14 1918.84,-280.24 1908.71,-277.15 1908.99,-284.14"/>
<text text-anchor="middle" x="1764.5" y="-318.8" font-family="Times,serif" font-size="14.00">0.017</text>
</g>
<!-- s4&#45;&gt;s4 -->
<g id="edge79" class="edge">
<title>s4&#45;&gt;s4</title>
<path fill="none" stroke="black" d="M1709.53,-373.75C1720.51,-374.49 1730,-371.91 1730,-366 1730,-362.03 1725.72,-359.56 1719.57,-358.59"/>
<polygon fill="black" stroke="black" points="1719.65,-355.09 1709.53,-358.25 1719.41,-362.09 1719.65,-355.09"/>
<text text-anchor="middle" x="1750.5" y="-362.3" font-family="Times,serif" font-size="14.00">0.853</text>
</g>
<!-- s4&#45;&gt;s5 -->
<g id="edge80" class="edge">
<title>s4&#45;&gt;s5</title>
<path fill="none" stroke="black" d="M1711.94,-367.88C1772.97,-370.24 1926.22,-378.24 2052,-402 2102.3,-411.5 2159.02,-429 2193.89,-440.57"/>
<polygon fill="black" stroke="black" points="2192.96,-443.95 2203.55,-443.81 2195.19,-437.31 2192.96,-443.95"/>
<text text-anchor="middle" x="2135.5" y="-405.8" font-family="Times,serif" font-size="14.00">0.003</text>
</g>
<!-- s4&#45;&gt;s6 -->
<g id="edge81" class="edge">
<title>s4&#45;&gt;s6</title>
<path fill="none" stroke="black" d="M1658.15,-368.34C1622.22,-370.99 1557.19,-378.84 1507,-402 1462.19,-422.68 1463.05,-446.87 1420,-471 1382.84,-491.83 1371.16,-493.02 1330,-504 1272.35,-519.38 1203.66,-529.53 1162.51,-534.77"/>
<polygon fill="black" stroke="black" points="1161.9,-531.32 1152.41,-536.02 1162.77,-538.26 1161.9,-531.32"/>
<text text-anchor="middle" x="1482.5" y="-449.3" font-family="Times,serif" font-size="14.00">0.006</text>
</g>
<!-- s4&#45;&gt;s7 -->
<g id="edge82" class="edge">
<title>s4&#45;&gt;s7</title>
<path fill="none" stroke="black" d="M1663.25,-376.7C1650.92,-382.86 1635.67,-391.61 1624,-402 1595.52,-427.36 1604.86,-450.04 1573,-471 1543.64,-490.32 1528.32,-475.19 1496,-489 1484.78,-493.79 1484.44,-499.74 1473,-504 1417.09,-524.8 1390.89,-490.88 1340,-522 1308.13,-541.49 1324.19,-572.04 1292,-591 1257.93,-611.06 1154.27,-604.44 1115,-609 1083.4,-612.67 1047.57,-617.4 1021.53,-620.94"/>
<polygon fill="black" stroke="black" points="1020.8,-617.51 1011.36,-622.33 1021.75,-624.44 1020.8,-617.51"/>
<text text-anchor="middle" x="1516.5" y="-492.8" font-family="Times,serif" font-size="14.00">0.026</text>
</g>
<!-- s4&#45;&gt;s8 -->
<g id="edge83" class="edge">
<title>s4&#45;&gt;s8</title>
<path fill="none" stroke="black" d="M1683.74,-384.29C1681.15,-407.26 1673.22,-447.67 1649,-471 1629.26,-490.02 1615.32,-478.48 1590,-489 1576.96,-494.42 1575.37,-499.46 1562,-504 1515.51,-519.81 1497.78,-501.85 1453,-522 1441.91,-526.99 1377.59,-583.52 1368,-591 1357.49,-599.2 1353.84,-600 1344,-609 1313.59,-636.83 1316.97,-656.17 1282,-678 1255.68,-694.43 1221.44,-703.35 1195.78,-708.07"/>
<polygon fill="black" stroke="black" points="1194.97,-704.65 1185.7,-709.78 1196.14,-711.55 1194.97,-704.65"/>
<text text-anchor="middle" x="1473.5" y="-536.3" font-family="Times,serif" font-size="14.00">0.002</text>
</g>
<!-- s4&#45;&gt;s9 -->
<g id="edge84" class="edge">
<title>s4&#45;&gt;s9</title>
<path fill="none" stroke="black" d="M1712.15,-367.54C1759.42,-369.94 1857.27,-381.51 1915,-435 1950.4,-467.81 1964.78,-476.2 1980,-522 1985.05,-537.18 1982.56,-542.21 1980,-558 1978.65,-566.32 1975.35,-567.68 1974,-576 1960.48,-659.29 1942.24,-696.86 1992,-765 2002.51,-779.4 2020.25,-787.95 2036.35,-793"/>
<polygon fill="black" stroke="black" points="2035.52,-796.4 2046.09,-795.7 2037.39,-789.65 2035.52,-796.4"/>
<text text-anchor="middle" x="1994.5" y="-579.8" font-family="Times,serif" font-size="14.00">0.009</text>
</g>
<!-- s5&#45;&gt;s0 -->
<g id="edge85" class="edge">
<title>s5&#45;&gt;s0</title>
<path fill="none" stroke="black" d="M2254.26,-454.48C2310.76,-456.02 2438.15,-462.41 2471,-489 2564.6,-564.75 2514,-636.08 2514,-756.5 2514,-889 2514,-889 2514,-889 2514,-913.65 2510.52,-925.34 2490,-939 2436.01,-974.93 1977.86,-975.05 1842.51,-974.29"/>
<polygon fill="black" stroke="black" points="1842.26,-970.79 1832.23,-974.23 1842.21,-977.79 1842.26,-970.79"/>
<text text-anchor="middle" x="2537.5" y="-710.3" font-family="Times,serif" font-size="14.00">0.001</text>
</g>
<!-- s5&#45;&gt;s1 -->
<g id="edge86" class="edge">
<title>s5&#45;&gt;s1</title>
<path fill="none" stroke="black" d="M2240.73,-468.88C2245.23,-474.72 2249.68,-481.75 2252,-489 2273.16,-555.03 2265.78,-577.48 2250,-645 2230.5,-728.43 2234.57,-766.32 2167,-819 2102.37,-869.38 1512.52,-883.51 1356.64,-886.38"/>
<polygon fill="black" stroke="black" points="1356.12,-882.89 1346.18,-886.57 1356.24,-889.89 1356.12,-882.89"/>
<text text-anchor="middle" x="2265.5" y="-666.8" font-family="Times,serif" font-size="14.00">0.003</text>
</g>
<!-- s5&#45;&gt;s10 -->
<g id="edge87" class="edge">
<title>s5&#45;&gt;s10</title>
<path fill="none" stroke="black" d="M2253.6,-448.82C2318.55,-440.3 2480,-414.38 2480,-367 2480,-367 2480,-367 2480,-104 2480,-13.67 2372.38,-67.05 2283,-54 2124.26,-30.82 1619.99,-21.68 1477.71,-19.53"/>
<polygon fill="black" stroke="black" points="1477.39,-16.02 1467.34,-19.37 1477.28,-23.02 1477.39,-16.02"/>
<text text-anchor="middle" x="2500.5" y="-231.8" font-family="Times,serif" font-size="14.00">0.029</text>
</g>
<!-- s5&#45;&gt;s11 -->
<g id="edge88" class="edge">
<title>s5&#45;&gt;s11</title>
<path fill="none" stroke="black" d="M2200.26,-449.6C2114.5,-441.94 1838.64,-417.69 1610,-402 1574.47,-399.56 1321.54,-400.54 1290,-384 1272.05,-374.59 1276.01,-362.65 1262,-348 1205.11,-288.54 1184.68,-280.12 1121,-228 1075.95,-191.12 1022.37,-149.42 991.46,-125.56"/>
<polygon fill="black" stroke="black" points="993.43,-122.66 983.37,-119.33 989.16,-128.2 993.43,-122.66"/>
<text text-anchor="middle" x="1229.5" y="-275.3" font-family="Times,serif" font-size="14.00">0.041</text>
</g>
<!-- s5&#45;&gt;s2 -->
<g id="edge89" class="edge">
<title>s5&#45;&gt;s2</title>
<path fill="none" stroke="black" d="M2232.85,-435.11C2234.54,-429.43 2236.16,-423.01 2237,-417 2243.47,-370.78 2245.4,-347.6 2212,-315 2190.55,-294.06 2174.55,-308.82 2147,-297 2118.42,-284.74 2116.03,-272.16 2087,-261 1893.78,-186.68 1830.58,-223.53 1624,-210 1551.03,-205.22 1465.76,-199.14 1418.11,-195.7"/>
<polygon fill="black" stroke="black" points="1418.19,-192.2 1407.96,-194.97 1417.69,-199.18 1418.19,-192.2"/>
<text text-anchor="middle" x="2245.5" y="-318.8" font-family="Times,serif" font-size="14.00">0.024</text>
</g>
<!-- s5&#45;&gt;s3 -->
<g id="edge90" class="edge">
<title>s5&#45;&gt;s3</title>
<path fill="none" stroke="black" d="M2212.54,-437.5C2200.36,-426.13 2181.93,-410.79 2163,-402 2127.58,-385.55 2108.77,-406.71 2077,-384 2047.98,-363.26 2063.22,-338.06 2036,-315 2020.42,-301.8 1999.3,-293.24 1981.43,-287.89"/>
<polygon fill="black" stroke="black" points="1982.2,-284.47 1971.63,-285.17 1980.33,-291.22 1982.2,-284.47"/>
<text text-anchor="middle" x="2097.5" y="-362.3" font-family="Times,serif" font-size="14.00">0.033</text>
</g>
<!-- s5&#45;&gt;s4 -->
<g id="edge91" class="edge">
<title>s5&#45;&gt;s4</title>
<path fill="none" stroke="black" d="M2200.29,-449.24C2158.6,-444.6 2075.69,-434.04 2007,-417 1986.95,-412.03 1983.13,-406.65 1963,-402 1877.91,-382.35 1775.44,-373.05 1721.82,-369.24"/>
<polygon fill="black" stroke="black" points="1721.98,-365.75 1711.76,-368.56 1721.5,-372.73 1721.98,-365.75"/>
<text text-anchor="middle" x="2027.5" y="-405.8" font-family="Times,serif" font-size="14.00">0.005</text>
</g>
<!-- s5&#45;&gt;s5 -->
<g id="edge92" class="edge">
<title>s5&#45;&gt;s5</title>
<path fill="none" stroke="black" d="M2251.53,-460.75C2262.51,-461.49 2272,-458.91 2272,-453 2272,-449.03 2267.72,-446.56 2261.57,-445.59"/>
<polygon fill="black" stroke="black" points="2261.65,-442.09 2251.53,-445.25 2261.41,-449.09 2261.65,-442.09"/>
<text text-anchor="middle" x="2292.5" y="-449.3" font-family="Times,serif" font-size="14.00">0.835</text>
</g>
<!-- s5&#45;&gt;s6 -->
<g id="edge93" class="edge">
<title>s5&#45;&gt;s6</title>
<path fill="none" stroke="black" d="M2200.1,-455.06C2118.62,-458.4 1867.44,-469.65 1660,-489 1606.48,-493.99 1593.46,-498.4 1540,-504 1467.27,-511.62 1250.05,-529.12 1162.84,-536.08"/>
<polygon fill="black" stroke="black" points="1162.55,-532.59 1152.86,-536.87 1163.11,-539.57 1162.55,-532.59"/>
<text text-anchor="middle" x="1680.5" y="-492.8" font-family="Times,serif" font-size="14.00">0.018</text>
</g>
<!-- s5&#45;&gt;s7 -->
<g id="edge94" class="edge">
<title>s5&#45;&gt;s7</title>
<path fill="none" stroke="black" d="M2202.06,-460.31C2160.98,-470.55 2076.43,-490.93 2004,-504 1946.17,-514.44 1930.64,-510.55 1873,-522 1813.52,-533.81 1668.99,-582.18 1609,-591 1391.64,-622.97 1333.94,-590.74 1115,-609 1083.3,-611.64 1047.47,-616.47 1021.47,-620.3"/>
<polygon fill="black" stroke="black" points="1020.69,-616.88 1011.31,-621.82 1021.72,-623.8 1020.69,-616.88"/>
<text text-anchor="middle" x="1893.5" y="-536.3" font-family="Times,serif" font-size="14.00">0.003</text>
</g>
<!-- s5&#45;&gt;s8 -->
<g id="edge95" class="edge">
<title>s5&#45;&gt;s8</title>
<path fill="none" stroke="black" d="M2204.72,-463.43C2154.11,-484.38 2026.15,-534.83 1914,-558 1868.78,-567.34 1746.73,-552.47 1707,-576 1660.12,-603.77 1686.34,-651.04 1639,-678 1605.93,-696.83 1334.91,-692.67 1297,-696 1262.35,-699.04 1222.99,-704.05 1195.19,-707.84"/>
<polygon fill="black" stroke="black" points="1194.57,-704.39 1185.14,-709.23 1195.53,-711.33 1194.57,-704.39"/>
<text text-anchor="middle" x="1718.5" y="-579.8" font-family="Times,serif" font-size="14.00">0.0</text>
</g>
<!-- s5&#45;&gt;s9 -->
<g id="edge96" class="edge">
<title>s5&#45;&gt;s9</title>
<path fill="none" stroke="black" d="M2226.85,-471.02C2225.86,-492.98 2221.37,-531.51 2203,-558 2182.86,-587.04 2161.38,-579.45 2142,-609 2102.35,-669.44 2127.04,-699.72 2096,-765 2094.23,-768.71 2092.1,-772.47 2089.84,-776.07"/>
<polygon fill="black" stroke="black" points="2086.77,-774.36 2084.1,-784.61 2092.58,-778.26 2086.77,-774.36"/>
<text text-anchor="middle" x="2162.5" y="-623.3" font-family="Times,serif" font-size="14.00">0.008</text>
</g>
<!-- s6&#45;&gt;s0 -->
<g id="edge97" class="edge">
<title>s6&#45;&gt;s0</title>
<path fill="none" stroke="black" d="M1098.97,-542.4C985.34,-548.77 547.59,-578.53 444,-663 355.21,-735.41 379.07,-732.25 402,-765 531.67,-950.2 657.76,-897.5 880,-939 977.56,-957.22 1676.95,-932.04 1773,-957 1774.23,-957.32 1775.47,-957.7 1776.71,-958.12"/>
<polygon fill="black" stroke="black" points="1775.39,-961.36 1785.96,-962.04 1778.12,-954.92 1775.39,-961.36"/>
<text text-anchor="middle" x="422.5" y="-753.8" font-family="Times,serif" font-size="14.00">0.004</text>
</g>
<!-- s6&#45;&gt;s1 -->
<g id="edge98" class="edge">
<title>s6&#45;&gt;s1</title>
<path fill="none" stroke="black" d="M1143.75,-553.87C1160.43,-566.58 1185.4,-587.22 1203,-609 1258.64,-677.87 1271.01,-699.34 1300,-783 1308.79,-808.37 1313.74,-838.7 1316.37,-860.05"/>
<polygon fill="black" stroke="black" points="1312.89,-860.49 1317.51,-870.03 1319.85,-859.69 1312.89,-860.49"/>
<text text-anchor="middle" x="1302.5" y="-710.3" font-family="Times,serif" font-size="14.00">0.007</text>
</g>
<!-- s6&#45;&gt;s10 -->
<g id="edge99" class="edge">
<title>s6&#45;&gt;s10</title>
<path fill="none" stroke="black" d="M1100.87,-532.71C1076.37,-526.34 1038.21,-515.76 1006,-504 934.79,-478 921.18,-461.11 850,-435 774.74,-407.4 737.37,-436.74 677,-384 633.81,-346.27 613.91,-313.04 638,-261 688.2,-152.55 736.59,-141.4 843,-87 941.63,-36.58 1287.47,-23.02 1402.48,-19.86"/>
<polygon fill="black" stroke="black" points="1402.66,-23.35 1412.57,-19.59 1402.48,-16.36 1402.66,-23.35"/>
<text text-anchor="middle" x="658.5" y="-275.3" font-family="Times,serif" font-size="14.00">0.002</text>
</g>
<!-- s6&#45;&gt;s11 -->
<g id="edge100" class="edge">
<title>s6&#45;&gt;s11</title>
<path fill="none" stroke="black" d="M1107.21,-526.93C1069.76,-502.42 988.09,-446.68 973,-417 924.81,-322.26 946.58,-189.37 959.22,-132.99"/>
<polygon fill="black" stroke="black" points="962.67,-133.61 961.53,-123.07 955.85,-132.02 962.67,-133.61"/>
<text text-anchor="middle" x="964" y="-318.8" font-family="Times,serif" font-size="14.00">0.16</text>
</g>
<!-- s6&#45;&gt;s2 -->
<g id="edge101" class="edge">
<title>s6&#45;&gt;s2</title>
<path fill="none" stroke="black" d="M1126.94,-521.69C1128.77,-500.1 1134.16,-462.66 1150,-435 1194.38,-357.52 1235.18,-362.37 1296,-297 1320.68,-270.47 1346.71,-237.84 1363.37,-216.28"/>
<polygon fill="black" stroke="black" points="1366.16,-218.38 1369.48,-208.32 1360.61,-214.12 1366.16,-218.38"/>
<text text-anchor="middle" x="1247.5" y="-362.3" font-family="Times,serif" font-size="14.00">0.0</text>
</g>
<!-- s6&#45;&gt;s3 -->
<g id="edge102" class="edge">
<title>s6&#45;&gt;s3</title>
<path fill="none" stroke="black" d="M1152.62,-536.14C1197.78,-531.09 1292.18,-519.6 1371,-504 1397.54,-498.75 1403.71,-495.41 1430,-489 1464.14,-480.67 1477.05,-489.39 1507,-471 1541.14,-450.04 1535.95,-429.59 1565,-402 1611.47,-357.86 1620.7,-339.32 1680,-315 1756.8,-283.5 1855.59,-278.89 1908.53,-279.01"/>
<polygon fill="black" stroke="black" points="1908.77,-282.51 1918.79,-279.09 1908.82,-275.51 1908.77,-282.51"/>
<text text-anchor="middle" x="1585.5" y="-405.8" font-family="Times,serif" font-size="14.00">0.011</text>
</g>
<!-- s6&#45;&gt;s4 -->
<g id="edge103" class="edge">
<title>s6&#45;&gt;s4</title>
<path fill="none" stroke="black" d="M1151.89,-534.36C1193.85,-526.68 1273.16,-511.42 1284,-504 1314.41,-483.18 1299.6,-455.84 1330,-435 1381.63,-399.59 1568.46,-378.07 1648.35,-370.3"/>
<polygon fill="black" stroke="black" points="1648.82,-373.77 1658.44,-369.33 1648.15,-366.8 1648.82,-373.77"/>
<text text-anchor="middle" x="1350.5" y="-449.3" font-family="Times,serif" font-size="14.00">0.012</text>
</g>
<!-- s6&#45;&gt;s5 -->
<g id="edge104" class="edge">
<title>s6&#45;&gt;s5</title>
<path fill="none" stroke="black" d="M1152.67,-536.63C1193.14,-533.08 1272.5,-526.36 1340,-522 1420.15,-516.82 1624.6,-528.8 1701,-504 1712.61,-500.23 1712.43,-492.88 1724,-489 1810.37,-460.03 2088.78,-455.03 2189.88,-454.17"/>
<polygon fill="black" stroke="black" points="2189.96,-457.67 2199.93,-454.1 2189.9,-450.67 2189.96,-457.67"/>
<text text-anchor="middle" x="1744.5" y="-492.8" font-family="Times,serif" font-size="14.00">0.008</text>
</g>
<!-- s6&#45;&gt;s6 -->
<g id="edge105" class="edge">
<title>s6&#45;&gt;s6</title>
<path fill="none" stroke="black" d="M1150.53,-547.75C1161.51,-548.49 1171,-545.91 1171,-540 1171,-536.03 1166.72,-533.56 1160.57,-532.59"/>
<polygon fill="black" stroke="black" points="1160.65,-529.09 1150.53,-532.25 1160.41,-536.09 1160.65,-529.09"/>
<text text-anchor="middle" x="1191.5" y="-536.3" font-family="Times,serif" font-size="14.00">0.778</text>
</g>
<!-- s6&#45;&gt;s7 -->
<g id="edge106" class="edge">
<title>s6&#45;&gt;s7</title>
<path fill="none" stroke="black" d="M1102.47,-548.9C1085.56,-555.08 1062.57,-564.53 1044,-576 1030.89,-584.1 1017.68,-594.98 1007.09,-604.53"/>
<polygon fill="black" stroke="black" points="1004.52,-602.14 999.55,-611.5 1009.27,-607.28 1004.52,-602.14"/>
<text text-anchor="middle" x="1064.5" y="-579.8" font-family="Times,serif" font-size="14.00">0.014</text>
</g>
<!-- s6&#45;&gt;s8 -->
<g id="edge107" class="edge">
<title>s6&#45;&gt;s8</title>
<path fill="none" stroke="black" d="M1127.17,-558.08C1127.51,-563.78 1127.83,-570.16 1128,-576 1128.19,-582.66 1129.23,-584.45 1128,-591 1126.42,-599.44 1122.58,-600.56 1121,-609 1118.05,-624.73 1116.97,-629.52 1121,-645 1125.09,-660.69 1133.68,-676.6 1141.66,-689.08"/>
<polygon fill="black" stroke="black" points="1138.83,-691.14 1147.3,-697.51 1144.65,-687.25 1138.83,-691.14"/>
<text text-anchor="middle" x="1141.5" y="-623.3" font-family="Times,serif" font-size="14.00">0.002</text>
</g>
<!-- s6&#45;&gt;s9 -->
<g id="edge108" class="edge">
<title>s6&#45;&gt;s9</title>
<path fill="none" stroke="black" d="M1152.87,-543.05C1225.3,-548.7 1420.98,-564.82 1448,-576 1493.28,-594.73 1491.34,-620.89 1534,-645 1567.6,-663.99 1822.68,-755.15 1860,-765 1920.51,-780.98 1992.77,-791.05 2035.38,-796.09"/>
<polygon fill="black" stroke="black" points="2035.22,-799.59 2045.55,-797.26 2036.02,-792.64 2035.22,-799.59"/>
<text text-anchor="middle" x="1623.5" y="-666.8" font-family="Times,serif" font-size="14.00">0.0</text>
</g>
<!-- s7&#45;&gt;s0 -->
<g id="edge109" class="edge">
<title>s7&#45;&gt;s0</title>
<path fill="none" stroke="black" d="M961.35,-635.86C945.01,-641.9 923.2,-651.21 906,-663 850.58,-701.01 833.73,-718.76 814,-783 793.64,-849.29 847.82,-875.29 910,-906 982.92,-942.02 1009.1,-930.57 1090,-939 1165.51,-946.87 1699.58,-937.68 1773,-957 1774.23,-957.32 1775.47,-957.7 1776.7,-958.13"/>
<polygon fill="black" stroke="black" points="1775.39,-961.37 1785.96,-962.06 1778.13,-954.93 1775.39,-961.37"/>
<text text-anchor="middle" x="834.5" y="-797.3" font-family="Times,serif" font-size="14.00">0.002</text>
</g>
<!-- s7&#45;&gt;s1 -->
<g id="edge110" class="edge">
<title>s7&#45;&gt;s1</title>
<path fill="none" stroke="black" d="M986.93,-645.18C988.66,-655.31 991.92,-668.05 998,-678 1058.54,-777.13 1091.05,-796.34 1193,-852 1221.15,-867.37 1256.59,-876.43 1282.71,-881.47"/>
<polygon fill="black" stroke="black" points="1282.12,-884.92 1292.58,-883.27 1283.37,-878.03 1282.12,-884.92"/>
<text text-anchor="middle" x="1074.5" y="-753.8" font-family="Times,serif" font-size="14.00">0.0</text>
</g>
<!-- s7&#45;&gt;s10 -->
<g id="edge111" class="edge">
<title>s7&#45;&gt;s10</title>
<path fill="none" stroke="black" d="M958.28,-623.37C911.38,-617.75 812.55,-601.34 742,-558 661.26,-508.41 425.32,-310.45 472,-228 532.01,-122.01 595.77,-136.64 707,-87 752.44,-66.72 765.02,-62.79 814,-54 928.03,-33.54 1285.21,-22.91 1402.37,-19.9"/>
<polygon fill="black" stroke="black" points="1402.71,-23.4 1412.62,-19.65 1402.54,-16.4 1402.71,-23.4"/>
<text text-anchor="middle" x="517.5" y="-318.8" font-family="Times,serif" font-size="14.00">0.001</text>
</g>
<!-- s7&#45;&gt;s11 -->
<g id="edge112" class="edge">
<title>s7&#45;&gt;s11</title>
<path fill="none" stroke="black" d="M966.74,-613.28C947.63,-599.85 916.86,-577.9 891,-558 870.98,-542.59 868.54,-535.21 847,-522 841,-518.32 734.93,-476.84 731,-471 657.09,-361.24 660.49,-269.59 752,-174 798.87,-125.04 880.77,-111.22 928.51,-107.39"/>
<polygon fill="black" stroke="black" points="928.99,-110.86 938.73,-106.68 928.51,-103.88 928.99,-110.86"/>
<text text-anchor="middle" x="699.5" y="-362.3" font-family="Times,serif" font-size="14.00">0.0</text>
</g>
<!-- s7&#45;&gt;s2 -->
<g id="edge113" class="edge">
<title>s7&#45;&gt;s2</title>
<path fill="none" stroke="black" d="M988.4,-608.79C990.4,-599.1 993.11,-586.82 996,-576 1018.04,-493.4 1027.2,-470.76 1078,-402 1097.98,-374.95 1103.93,-367.95 1131,-348 1170.84,-318.63 1191.91,-328.61 1230,-297 1245.6,-284.05 1242.78,-274.38 1258,-261 1279.7,-241.93 1288.74,-242.03 1314,-228 1326.04,-221.31 1339.47,-214.23 1351.12,-208.19"/>
<polygon fill="black" stroke="black" points="1352.74,-211.3 1360.03,-203.61 1349.54,-205.07 1352.74,-211.3"/>
<text text-anchor="middle" x="1089.5" y="-405.8" font-family="Times,serif" font-size="14.00">0.0</text>
</g>
<!-- s7&#45;&gt;s3 -->
<g id="edge114" class="edge">
<title>s7&#45;&gt;s3</title>
<path fill="none" stroke="black" d="M1010.82,-621.51C1055.34,-613.13 1148.76,-592.74 1221,-558 1248.34,-544.85 1252.84,-537.36 1279,-522 1319.32,-498.33 1337.25,-503.35 1371,-471 1384.54,-458.02 1379.08,-447.56 1393,-435 1484.8,-352.16 1525.19,-349.25 1644,-315 1736.62,-288.3 1850.79,-281.88 1908.63,-280.4"/>
<polygon fill="black" stroke="black" points="1908.83,-283.89 1918.75,-280.17 1908.68,-276.9 1908.83,-283.89"/>
<text text-anchor="middle" x="1404.5" y="-449.3" font-family="Times,serif" font-size="14.00">0.0</text>
</g>
<!-- s7&#45;&gt;s4 -->
<g id="edge115" class="edge">
<title>s7&#45;&gt;s4</title>
<path fill="none" stroke="black" d="M1011.39,-622.54C1037.65,-619.1 1079.11,-613.67 1115,-609 1176.77,-600.96 1199.34,-620.88 1254,-591 1289.15,-571.78 1277.46,-542.3 1312,-522 1348.29,-500.66 1364.44,-515.27 1405,-504 1423.7,-498.81 1427.57,-495.08 1446,-489 1472.84,-480.14 1486.05,-489.98 1507,-471 1531.53,-448.78 1509.84,-423.5 1535,-402 1566.36,-375.19 1614.41,-367.98 1647.64,-366.49"/>
<polygon fill="black" stroke="black" points="1647.98,-369.98 1657.87,-366.19 1647.77,-362.98 1647.98,-369.98"/>
<text text-anchor="middle" x="1457.5" y="-492.8" font-family="Times,serif" font-size="14.00">0.0</text>
</g>
<!-- s7&#45;&gt;s5 -->
<g id="edge116" class="edge">
<title>s7&#45;&gt;s5</title>
<path fill="none" stroke="black" d="M1011.35,-622.15C1037.58,-618.42 1079.01,-612.78 1115,-609 1215.65,-598.44 1241.73,-604.7 1342,-591 1500.82,-569.3 1537.53,-546.1 1696,-522 1768.49,-510.98 1787.22,-512.95 1860,-504 1981.22,-489.09 2124.58,-468.78 2190.5,-459.29"/>
<polygon fill="black" stroke="black" points="2191.38,-462.7 2200.77,-457.81 2190.38,-455.78 2191.38,-462.7"/>
<text text-anchor="middle" x="1716.5" y="-536.3" font-family="Times,serif" font-size="14.00">0.001</text>
</g>
<!-- s7&#45;&gt;s6 -->
<g id="edge117" class="edge">
<title>s7&#45;&gt;s6</title>
<path fill="none" stroke="black" d="M1010.61,-621.1C1031.94,-616.11 1062.39,-606.81 1085,-591 1094.76,-584.17 1103.47,-574.42 1110.33,-565.33"/>
<polygon fill="black" stroke="black" points="1113.35,-567.12 1116.31,-556.95 1107.65,-563.06 1113.35,-567.12"/>
<text text-anchor="middle" x="1112.5" y="-579.8" font-family="Times,serif" font-size="14.00">0.0</text>
</g>
<!-- s7&#45;&gt;s7 -->
<g id="edge118" class="edge">
<title>s7&#45;&gt;s7</title>
<path fill="none" stroke="black" d="M1009.53,-634.75C1020.51,-635.49 1030,-632.91 1030,-627 1030,-623.03 1025.72,-620.56 1019.57,-619.59"/>
<polygon fill="black" stroke="black" points="1019.65,-616.09 1009.53,-619.25 1019.41,-623.09 1019.65,-616.09"/>
<text text-anchor="middle" x="1050.5" y="-623.3" font-family="Times,serif" font-size="14.00">0.994</text>
</g>
<!-- s7&#45;&gt;s8 -->
<g id="edge119" class="edge">
<title>s7&#45;&gt;s8</title>
<path fill="none" stroke="black" d="M991.07,-644.8C995.91,-655.84 1003.75,-669.72 1015,-678 1046.28,-701.02 1090.73,-709.06 1121.95,-711.78"/>
<polygon fill="black" stroke="black" points="1121.76,-715.28 1131.99,-712.52 1122.27,-708.3 1121.76,-715.28"/>
<text text-anchor="middle" x="1035.5" y="-666.8" font-family="Times,serif" font-size="14.00">0.001</text>
</g>
<!-- s7&#45;&gt;s9 -->
<g id="edge120" class="edge">
<title>s7&#45;&gt;s9</title>
<path fill="none" stroke="black" d="M1011.26,-631.44C1114.53,-644.96 1487.75,-693.88 1500,-696 1644.22,-720.93 1677.88,-739.5 1822,-765 1897.59,-778.37 1986.77,-789.83 2035.56,-795.73"/>
<polygon fill="black" stroke="black" points="2035.28,-799.22 2045.63,-796.94 2036.12,-792.27 2035.28,-799.22"/>
<text text-anchor="middle" x="1686.5" y="-710.3" font-family="Times,serif" font-size="14.00">0.001</text>
</g>
<!-- s8&#45;&gt;s0 -->
<g id="edge121" class="edge">
<title>s8&#45;&gt;s0</title>
<path fill="none" stroke="black" d="M1131.57,-714.32C1070.52,-713.47 926.42,-715.26 896,-750 891.61,-755.02 892.55,-759.29 896,-765 965.57,-880.21 1036.91,-861.71 1164,-906 1238.74,-932.05 1260.36,-930 1339,-939 1434.9,-949.97 1679.84,-931.73 1773,-957 1774.23,-957.33 1775.46,-957.72 1776.7,-958.15"/>
<polygon fill="black" stroke="black" points="1775.37,-961.39 1785.94,-962.12 1778.13,-954.96 1775.37,-961.39"/>
<text text-anchor="middle" x="1004.5" y="-840.8" font-family="Times,serif" font-size="14.00">0.005</text>
</g>
<!-- s8&#45;&gt;s1 -->
<g id="edge122" class="edge">
<title>s8&#45;&gt;s1</title>
<path fill="none" stroke="black" d="M1157.85,-732.36C1157.29,-754.69 1159.53,-793.62 1179,-819 1204.67,-852.47 1251.09,-870.41 1283.41,-879.31"/>
<polygon fill="black" stroke="black" points="1282.81,-882.77 1293.37,-881.89 1284.56,-875.99 1282.81,-882.77"/>
<text text-anchor="middle" x="1199.5" y="-797.3" font-family="Times,serif" font-size="14.00">0.001</text>
</g>
<!-- s8&#45;&gt;s10 -->
<g id="edge123" class="edge">
<title>s8&#45;&gt;s10</title>
<path fill="none" stroke="black" d="M1132.05,-712.8C1049.9,-711.86 795.46,-706.69 587,-678 518.09,-668.52 498.63,-670.73 434,-645 391.01,-627.89 376.95,-624.46 345,-591 333.46,-578.92 334.23,-573.06 327,-558 314.78,-532.54 229,-351.74 229,-323.5 229,-323.5 229,-323.5 229,-104 229,-43.66 1198.25,-23.25 1402.5,-19.62"/>
<polygon fill="black" stroke="black" points="1402.78,-23.12 1412.72,-19.44 1402.66,-16.12 1402.78,-23.12"/>
<text text-anchor="middle" x="269.5" y="-362.3" font-family="Times,serif" font-size="14.00">0.002</text>
</g>
<!-- s8&#45;&gt;s11 -->
<g id="edge124" class="edge">
<title>s8&#45;&gt;s11</title>
<path fill="none" stroke="black" d="M1131.96,-712.52C1051.05,-710.81 812,-703.65 739,-678 604.83,-630.85 534.13,-387.14 533,-384 495.38,-279.08 505.18,-207 595,-141 615.39,-126.02 796.82,-125.48 822,-123 858.59,-119.39 900.31,-114.37 929.38,-110.72"/>
<polygon fill="black" stroke="black" points="930.01,-114.16 939.49,-109.44 929.13,-107.22 930.01,-114.16"/>
<text text-anchor="middle" x="555.5" y="-405.8" font-family="Times,serif" font-size="14.00">0.0</text>
</g>
<!-- s8&#45;&gt;s2 -->
<g id="edge125" class="edge">
<title>s8&#45;&gt;s2</title>
<path fill="none" stroke="black" d="M1132.02,-712.58C1031.63,-709.73 688.24,-687.89 742,-522 756.72,-476.58 770.62,-468.13 805,-435 855.06,-386.76 875.3,-383.63 935,-348 1033,-289.52 1053.76,-264.16 1162,-228 1223.87,-207.33 1299.77,-198.69 1344.02,-195.21"/>
<polygon fill="black" stroke="black" points="1344.32,-198.7 1354.04,-194.47 1343.8,-191.72 1344.32,-198.7"/>
<text text-anchor="middle" x="825.5" y="-449.3" font-family="Times,serif" font-size="14.00">0.002</text>
</g>
<!-- s8&#45;&gt;s3 -->
<g id="edge126" class="edge">
<title>s8&#45;&gt;s3</title>
<path fill="none" stroke="black" d="M1184.97,-708.45C1226.24,-701.11 1304.91,-686.59 1332,-678 1437.8,-644.45 1459.31,-620.54 1551,-558 1572.74,-543.17 1573.47,-531.51 1598,-522 1641.26,-505.22 1768.53,-531.36 1806,-504 1879.53,-450.32 1824.77,-383.27 1885,-315 1892.92,-306.03 1903.71,-298.8 1914.02,-293.29"/>
<polygon fill="black" stroke="black" points="1915.85,-296.29 1923.25,-288.71 1912.74,-290.01 1915.85,-296.29"/>
<text text-anchor="middle" x="1833.5" y="-492.8" font-family="Times,serif" font-size="14.00">0.0</text>
</g>
<!-- s8&#45;&gt;s4 -->
<g id="edge127" class="edge">
<title>s8&#45;&gt;s4</title>
<path fill="none" stroke="black" d="M1177.32,-700.72C1207.54,-680.03 1268.95,-636.03 1314,-591 1327.21,-577.8 1329.34,-573.33 1340,-558 1350.71,-542.61 1346.14,-532 1362,-522 1395.07,-501.16 1499.62,-515.45 1537,-504 1550.5,-499.87 1552.5,-495.56 1565,-489 1580.49,-480.87 1586.4,-482 1600,-471 1628.49,-447.95 1654.03,-414.01 1669.51,-391.24"/>
<polygon fill="black" stroke="black" points="1672.49,-393.07 1675.12,-382.81 1666.66,-389.19 1672.49,-393.07"/>
<text text-anchor="middle" x="1382.5" y="-536.3" font-family="Times,serif" font-size="14.00">0.006</text>
</g>
<!-- s8&#45;&gt;s5 -->
<g id="edge128" class="edge">
<title>s8&#45;&gt;s5</title>
<path fill="none" stroke="black" d="M1185.14,-709.2C1212.85,-705.31 1257.92,-699.37 1297,-696 1458.38,-682.09 1502.1,-709.42 1661,-678 1682.51,-673.75 1741.35,-662.91 1754,-645 1767.85,-625.39 1753.67,-614.99 1753,-591 1752.82,-584.34 1748.39,-580.81 1753,-576 1785.39,-542.19 2134.61,-583.31 2174,-558 2200.7,-540.84 2214.57,-505.75 2221.31,-481.09"/>
<polygon fill="black" stroke="black" points="2224.74,-481.8 2223.78,-471.24 2217.95,-480.09 2224.74,-481.8"/>
<text text-anchor="middle" x="1773.5" y="-579.8" font-family="Times,serif" font-size="14.00">0.001</text>
</g>
<!-- s8&#45;&gt;s6 -->
<g id="edge129" class="edge">
<title>s8&#45;&gt;s6</title>
<path fill="none" stroke="black" d="M1162.29,-695.76C1165.65,-674.88 1169.4,-638.8 1162,-609 1158.14,-593.46 1150,-577.56 1142.43,-565.04"/>
<polygon fill="black" stroke="black" points="1145.39,-563.17 1137.1,-556.58 1139.47,-566.91 1145.39,-563.17"/>
<text text-anchor="middle" x="1183" y="-623.3" font-family="Times,serif" font-size="14.00">0.01</text>
</g>
<!-- s8&#45;&gt;s7 -->
<g id="edge130" class="edge">
<title>s8&#45;&gt;s7</title>
<path fill="none" stroke="black" d="M1136.11,-704.17C1119.85,-697.61 1097.67,-688.08 1079,-678 1068.26,-672.2 1066.6,-669.04 1056,-663 1043.15,-655.68 1028.57,-648.33 1015.97,-642.27"/>
<polygon fill="black" stroke="black" points="1017.32,-639.04 1006.79,-637.91 1014.32,-645.36 1017.32,-639.04"/>
<text text-anchor="middle" x="1099.5" y="-666.8" font-family="Times,serif" font-size="14.00">0.019</text>
</g>
<!-- s8&#45;&gt;s8 -->
<g id="edge131" class="edge">
<title>s8&#45;&gt;s8</title>
<path fill="none" stroke="black" d="M1183.53,-721.75C1194.51,-722.49 1204,-719.91 1204,-714 1204,-710.03 1199.72,-707.56 1193.57,-706.59"/>
<polygon fill="black" stroke="black" points="1193.65,-703.09 1183.53,-706.25 1193.41,-710.09 1193.65,-703.09"/>
<text text-anchor="middle" x="1224.5" y="-710.3" font-family="Times,serif" font-size="14.00">0.952</text>
</g>
<!-- s8&#45;&gt;s9 -->
<g id="edge132" class="edge">
<title>s8&#45;&gt;s9</title>
<path fill="none" stroke="black" d="M1185.14,-718.75C1212.86,-722.6 1257.93,-728.51 1297,-732 1440.21,-744.8 1478.53,-724.36 1620,-750 1641.99,-753.99 1646.07,-760.68 1668,-765 1801.04,-791.23 1962.59,-797.8 2034.43,-799.45"/>
<polygon fill="black" stroke="black" points="2034.7,-802.96 2044.77,-799.67 2034.84,-795.96 2034.7,-802.96"/>
<text text-anchor="middle" x="1688.5" y="-753.8" font-family="Times,serif" font-size="14.00">0.001</text>
</g>
<!-- s9&#45;&gt;s0 -->
<g id="edge133" class="edge">
<title>s9&#45;&gt;s0</title>
<path fill="none" stroke="black" d="M2060.06,-817.21C2037.12,-845.43 1984,-905.98 1926,-939 1899.61,-954.03 1866.25,-963.05 1841.24,-968.16"/>
<polygon fill="black" stroke="black" points="1840.57,-964.72 1831.42,-970.06 1841.9,-971.6 1840.57,-964.72"/>
<text text-anchor="middle" x="2030.5" y="-884.3" font-family="Times,serif" font-size="14.00">0.013</text>
</g>
<!-- s9&#45;&gt;s1 -->
<g id="edge134" class="edge">
<title>s9&#45;&gt;s1</title>
<path fill="none" stroke="black" d="M2049.63,-811.53C2020.74,-823.35 1968.64,-843.04 1922,-852 1812.76,-872.99 1470.44,-883.23 1356.39,-886.12"/>
<polygon fill="black" stroke="black" points="1355.99,-882.63 1346.08,-886.38 1356.17,-889.63 1355.99,-882.63"/>
<text text-anchor="middle" x="1987.5" y="-840.8" font-family="Times,serif" font-size="14.00">0.0</text>
</g>
<!-- s9&#45;&gt;s10 -->
<g id="edge135" class="edge">
<title>s9&#45;&gt;s10</title>
<path fill="none" stroke="black" d="M2099.21,-800.21C2146.66,-799.71 2246.92,-794.84 2325,-765 2375.33,-745.76 2818,-538.76 2818,-410.5 2818,-410.5 2818,-410.5 2818,-104 2818,-34.87 1698.7,-21.31 1477.65,-19.3"/>
<polygon fill="black" stroke="black" points="1477.56,-15.8 1467.53,-19.21 1477.49,-22.8 1477.56,-15.8"/>
<text text-anchor="middle" x="2838.5" y="-405.8" font-family="Times,serif" font-size="14.00">0.001</text>
</g>
<!-- s9&#45;&gt;s11 -->
<g id="edge136" class="edge">
<title>s9&#45;&gt;s11</title>
<path fill="none" stroke="black" d="M2097.43,-794.87C2115.65,-791.29 2140.78,-786.53 2163,-783 2223.65,-773.36 2244.17,-790.57 2300,-765 2345.59,-744.12 2452.89,-615.83 2535,-471 2583.52,-385.41 2671.64,-333.37 2605,-261 2588.54,-243.12 2410.9,-247.4 2387,-243 2335.13,-233.45 2321.14,-231.56 2273,-210 2220.33,-186.41 2218.27,-157.59 2163,-141 2079.76,-116.01 1467.87,-125.78 1381,-123 1241.55,-118.54 1075.83,-111.11 1003.21,-107.75"/>
<polygon fill="black" stroke="black" points="1003.34,-104.25 993.18,-107.28 1003.01,-111.24 1003.34,-104.25"/>
<text text-anchor="middle" x="2578.5" y="-449.3" font-family="Times,serif" font-size="14.00">0.002</text>
</g>
<!-- s9&#45;&gt;s2 -->
<g id="edge137" class="edge">
<title>s9&#45;&gt;s2</title>
<path fill="none" stroke="black" d="M2096.79,-793.86C2143.11,-781 2242.38,-746.58 2290,-678 2352.13,-588.53 2337.82,-542.78 2322,-435 2313.91,-379.91 2317.4,-360.98 2286,-315 2278.68,-304.28 2272.16,-306.19 2263,-297 2248.69,-282.65 2252.47,-271.28 2235,-261 2224.68,-254.93 2033.92,-229.19 2022,-228 1845.81,-210.42 1800.78,-220.18 1624,-210 1550.99,-205.8 1465.74,-199.51 1418.1,-195.88"/>
<polygon fill="black" stroke="black" points="1418.19,-192.38 1407.96,-195.1 1417.66,-199.36 1418.19,-192.38"/>
<text text-anchor="middle" x="2352.5" y="-492.8" font-family="Times,serif" font-size="14.00">0.018</text>
</g>
<!-- s9&#45;&gt;s3 -->
<g id="edge138" class="edge">
<title>s9&#45;&gt;s3</title>
<path fill="none" stroke="black" d="M2076.36,-782.89C2094.58,-710.56 2162.6,-432.21 2138,-402 2113.07,-371.38 2085.8,-402.66 2051,-384 2031.45,-373.51 1990.4,-329.74 1965.82,-302.43"/>
<polygon fill="black" stroke="black" points="1968.33,-299.99 1959.06,-294.88 1963.12,-304.66 1968.33,-299.99"/>
<text text-anchor="middle" x="2144.5" y="-536.3" font-family="Times,serif" font-size="14.00">0.0</text>
</g>
<!-- s9&#45;&gt;s4 -->
<g id="edge139" class="edge">
<title>s9&#45;&gt;s4</title>
<path fill="none" stroke="black" d="M2052.16,-788.51C2043.85,-782.6 2034.97,-774.61 2030,-765 1991.27,-690.17 2033.05,-658.31 2015,-576 2000.1,-508.04 1997.35,-483.01 1947,-435 1926.37,-415.33 1918.74,-411.88 1892,-402 1834.95,-380.92 1764.33,-372.45 1722.07,-369.11"/>
<polygon fill="black" stroke="black" points="1722.19,-365.61 1711.96,-368.36 1721.67,-372.59 1722.19,-365.61"/>
<text text-anchor="middle" x="2028.5" y="-579.8" font-family="Times,serif" font-size="14.00">0.0</text>
</g>
<!-- s9&#45;&gt;s5 -->
<g id="edge140" class="edge">
<title>s9&#45;&gt;s5</title>
<path fill="none" stroke="black" d="M2089.53,-787.2C2097.28,-781.02 2106.16,-773.19 2113,-765 2179.94,-684.9 2188.49,-656.17 2224,-558 2234.64,-528.57 2242.75,-519.93 2238,-489 2237.58,-486.26 2236.98,-483.44 2236.29,-480.65"/>
<polygon fill="black" stroke="black" points="2239.59,-479.47 2233.43,-470.84 2232.87,-481.42 2239.59,-479.47"/>
<text text-anchor="middle" x="2225.5" y="-623.3" font-family="Times,serif" font-size="14.00">0.002</text>
</g>
<!-- s9&#45;&gt;s6 -->
<g id="edge141" class="edge">
<title>s9&#45;&gt;s6</title>
<path fill="none" stroke="black" d="M2046.21,-794.99C2021.66,-789.62 1984.1,-779.81 1954,-765 1884.6,-730.85 1884.71,-691.98 1813,-663 1760.55,-641.8 1741.53,-660.04 1687,-645 1647.06,-633.98 1640.26,-622.24 1601,-609 1545.74,-590.36 1531.41,-586.28 1474,-576 1414.99,-565.43 1239.97,-550.34 1163.01,-544"/>
<polygon fill="black" stroke="black" points="1163.08,-540.49 1152.82,-543.16 1162.5,-547.47 1163.08,-540.49"/>
<text text-anchor="middle" x="1853.5" y="-666.8" font-family="Times,serif" font-size="14.00">0.0</text>
</g>
<!-- s9&#45;&gt;s7 -->
<g id="edge142" class="edge">
<title>s9&#45;&gt;s7</title>
<path fill="none" stroke="black" d="M2044.62,-799.92C1987.53,-799.15 1852.06,-794.1 1743,-765 1727.04,-760.74 1725.03,-753.98 1709,-750 1654.08,-736.38 1505.77,-756.99 1455,-732 1435.79,-722.55 1442.05,-705.78 1423,-696 1388.81,-678.45 1289.03,-683.55 1251,-678 1167.92,-665.86 1071.22,-646.31 1020.39,-635.61"/>
<polygon fill="black" stroke="black" points="1021.07,-632.17 1010.56,-633.52 1019.62,-639.02 1021.07,-632.17"/>
<text text-anchor="middle" x="1475.5" y="-710.3" font-family="Times,serif" font-size="14.00">0.007</text>
</g>
<!-- s9&#45;&gt;s8 -->
<g id="edge143" class="edge">
<title>s9&#45;&gt;s8</title>
<path fill="none" stroke="black" d="M2045.23,-798.4C1972.48,-793.98 1765.08,-780.87 1593,-765 1461.19,-752.84 1428.47,-747.43 1297,-732 1262.56,-727.96 1223.32,-723.1 1195.51,-719.61"/>
<polygon fill="black" stroke="black" points="1195.8,-716.12 1185.44,-718.35 1194.93,-723.07 1195.8,-716.12"/>
<text text-anchor="middle" x="1604.5" y="-753.8" font-family="Times,serif" font-size="14.00">0.0</text>
</g>
<!-- s9&#45;&gt;s9 -->
<g id="edge144" class="edge">
<title>s9&#45;&gt;s9</title>
<path fill="none" stroke="black" d="M2096.53,-808.75C2107.51,-809.49 2117,-806.91 2117,-801 2117,-797.03 2112.72,-794.56 2106.57,-793.59"/>
<polygon fill="black" stroke="black" points="2106.65,-790.09 2096.53,-793.25 2106.41,-797.09 2106.65,-790.09"/>
<text text-anchor="middle" x="2137.5" y="-797.3" font-family="Times,serif" font-size="14.00">0.957</text>
</g>
<!-- None&#45;start -->
<g id="node13" class="node">
<title>None&#45;start</title>
<ellipse fill="none" stroke="grey" cx="2619" cy="-1062" rx="60.39" ry="18"/>
<text text-anchor="middle" x="2619" y="-1058.3" font-family="Times,serif" font-size="14.00">None&#45;start</text>
</g>
<!-- None&#45;start&#45;&gt;s0 -->
<g id="edge145" class="edge">
<title>None&#45;start&#45;&gt;s0</title>
<path fill="none" stroke="black" d="M2563.05,-1055.16C2407.23,-1038.89 1971.27,-993.36 1841.74,-979.84"/>
<polygon fill="black" stroke="black" points="1841.87,-976.33 1831.56,-978.77 1841.14,-983.29 1841.87,-976.33"/>
<text text-anchor="middle" x="2280.5" y="-1014.8" font-family="Times,serif" font-size="14.00">0.128</text>
</g>
<!-- None&#45;start&#45;&gt;s1 -->
<g id="edge146" class="edge">
<title>None&#45;start&#45;&gt;s1</title>
<path fill="none" stroke="black" d="M2559.63,-1058.5C2416.24,-1052.01 2039.87,-1032.36 1728,-993 1590.99,-975.71 1553.38,-981.56 1422,-939 1395.88,-930.54 1367.96,-916.65 1347.79,-905.66"/>
<polygon fill="black" stroke="black" points="1349.27,-902.48 1338.83,-900.69 1345.87,-908.6 1349.27,-902.48"/>
<text text-anchor="middle" x="1748.5" y="-971.3" font-family="Times,serif" font-size="14.00">0.232</text>
</g>
<!-- None&#45;start&#45;&gt;s10 -->
<g id="edge147" class="edge">
<title>None&#45;start&#45;&gt;s10</title>
<path fill="none" stroke="black" d="M2662.47,-1049.31C2671.21,-1047.28 2680.36,-1045.38 2689,-1044 2781.06,-1029.25 3103,-1069.23 3103,-976 3103,-976 3103,-976 3103,-104 3103,-88 3054.5,-67.58 2987,-54 2835.01,-23.43 1699.22,-19.53 1477.47,-19.06"/>
<polygon fill="black" stroke="black" points="1477.33,-15.56 1467.32,-19.04 1477.32,-22.56 1477.33,-15.56"/>
<text text-anchor="middle" x="3123.5" y="-536.3" font-family="Times,serif" font-size="14.00">0.034</text>
</g>
<!-- None&#45;start&#45;&gt;s11 -->
<g id="edge148" class="edge">
<title>None&#45;start&#45;&gt;s11</title>
<path fill="none" stroke="black" d="M2558.43,-1060.66C2166.05,-1058.29 0,-1042.2 0,-976 0,-976 0,-976 0,-495.5 0,-323.6 57.85,-243.65 215,-174 344.93,-116.42 794.67,-107.6 928.29,-106.24"/>
<polygon fill="black" stroke="black" points="928.47,-109.74 938.43,-106.15 928.4,-102.74 928.47,-109.74"/>
<text text-anchor="middle" x="11.5" y="-579.8" font-family="Times,serif" font-size="14.00">0.0</text>
</g>
<!-- None&#45;start&#45;&gt;s2 -->
<g id="edge149" class="edge">
<title>None&#45;start&#45;&gt;s2</title>
<path fill="none" stroke="black" d="M2663.72,-1049.7C2672.1,-1047.71 2680.8,-1045.72 2689,-1044 2751.24,-1030.91 2967,-1039.6 2967,-976 2967,-976 2967,-976 2967,-756.5 2967,-591.92 2974.12,-520.59 2860,-402 2785.94,-325.04 2736.6,-350.87 2636,-315 2562.92,-288.95 2545.69,-278.05 2470,-261 2414.26,-248.44 2271.96,-232.54 2215,-228 1953.04,-207.11 1886.46,-223.17 1624,-210 1550.77,-206.32 1465.26,-199.83 1417.71,-196.02"/>
<polygon fill="black" stroke="black" points="1417.84,-192.52 1407.59,-195.2 1417.27,-199.5 1417.84,-192.52"/>
<text text-anchor="middle" x="2986.5" y="-623.3" font-family="Times,serif" font-size="14.00">0.141</text>
</g>
<!-- None&#45;start&#45;&gt;s3 -->
<g id="edge150" class="edge">
<title>None&#45;start&#45;&gt;s3</title>
<path fill="none" stroke="black" d="M2664.32,-1049.94C2734.89,-1032.09 2863,-996.8 2863,-976 2863,-976 2863,-976 2863,-843.5 2863,-739.04 2877.79,-708.82 2847,-609 2818.07,-515.21 2789.74,-493.6 2711,-435 2679.19,-411.33 2532.38,-348.77 2530,-348 2458.43,-324.86 2438.49,-325.49 2364,-315 2224.13,-295.31 2056.26,-285.36 1983.1,-281.7"/>
<polygon fill="black" stroke="black" points="1983.17,-278.2 1973.01,-281.21 1982.83,-285.19 1983.17,-278.2"/>
<text text-anchor="middle" x="2883.5" y="-666.8" font-family="Times,serif" font-size="14.00">0.175</text>
</g>
<!-- None&#45;start&#45;&gt;s4 -->
<g id="edge151" class="edge">
<title>None&#45;start&#45;&gt;s4</title>
<path fill="none" stroke="black" d="M2631.79,-1044.17C2665.28,-998.06 2751.17,-865.43 2725,-750 2696.3,-623.42 2681.54,-584.83 2594,-489 2587.55,-481.94 2535.86,-438.58 2527,-435 2451.64,-404.55 1875.42,-375.85 1722.28,-368.7"/>
<polygon fill="black" stroke="black" points="1722.15,-365.19 1712,-368.22 1721.82,-372.18 1722.15,-365.19"/>
<text text-anchor="middle" x="2731.5" y="-710.3" font-family="Times,serif" font-size="14.00">0.0</text>
</g>
<!-- None&#45;start&#45;&gt;s5 -->
<g id="edge152" class="edge">
<title>None&#45;start&#45;&gt;s5</title>
<path fill="none" stroke="black" d="M2662.12,-1049.34C2689.7,-1041.45 2721.03,-1031.5 2725,-1026 2742.97,-1001.15 2729.44,-987.34 2725,-957 2695.8,-757.34 2680.8,-704.63 2595,-522 2587.5,-506.05 2588.1,-498.09 2573,-489 2559.89,-481.11 2350.43,-463.76 2263.93,-456.88"/>
<polygon fill="black" stroke="black" points="2264.01,-453.38 2253.77,-456.08 2263.46,-460.36 2264.01,-453.38"/>
<text text-anchor="middle" x="2705" y="-753.8" font-family="Times,serif" font-size="14.00">0.02</text>
</g>
<!-- None&#45;start&#45;&gt;s6 -->
<g id="edge153" class="edge">
<title>None&#45;start&#45;&gt;s6</title>
<path fill="none" stroke="black" d="M2591.64,-1045.85C2522.57,-1008.44 2334.6,-911.7 2165,-870 2072.31,-847.21 2043.1,-877.06 1951,-852 1796.4,-809.93 1774.35,-756.54 1626,-696 1602.97,-686.6 1596.38,-686.5 1573,-678 1534.92,-664.15 1525,-661.52 1488,-645 1426.11,-617.37 1416.52,-596.78 1352,-576 1287.49,-555.22 1208.52,-546.59 1163.06,-543.15"/>
<polygon fill="black" stroke="black" points="1163.3,-539.66 1153.07,-542.43 1162.8,-546.64 1163.3,-539.66"/>
<text text-anchor="middle" x="1876.5" y="-797.3" font-family="Times,serif" font-size="14.00">0.257</text>
</g>
<!-- None&#45;start&#45;&gt;s7 -->
<g id="edge154" class="edge">
<title>None&#45;start&#45;&gt;s7</title>
<path fill="none" stroke="black" d="M2558.81,-1060.17C2211.21,-1054.95 468.83,-1023.06 264,-906 -0.09,-755.07 769.19,-653.42 948.53,-632.15"/>
<polygon fill="black" stroke="black" points="949.01,-635.62 958.53,-630.98 948.19,-628.67 949.01,-635.62"/>
<text text-anchor="middle" x="230.5" y="-840.8" font-family="Times,serif" font-size="14.00">0.002</text>
</g>
<!-- None&#45;start&#45;&gt;s8 -->
<g id="edge155" class="edge">
<title>None&#45;start&#45;&gt;s8</title>
<path fill="none" stroke="black" d="M2558.58,-1060.1C2264.5,-1055.16 992.09,-1026.88 869,-906 819.09,-856.98 826.79,-779.97 890,-750 930.31,-730.89 1058.28,-720.9 1122.09,-716.99"/>
<polygon fill="black" stroke="black" points="1122.35,-720.48 1132.12,-716.4 1121.93,-713.49 1122.35,-720.48"/>
<text text-anchor="middle" x="889.5" y="-884.3" font-family="Times,serif" font-size="14.00">0.012</text>
</g>
<!-- None&#45;start&#45;&gt;s9 -->
<g id="edge156" class="edge">
<title>None&#45;start&#45;&gt;s9</title>
<path fill="none" stroke="black" d="M2623.89,-1043.94C2633.39,-1006.76 2649.65,-917.93 2604,-870 2569.79,-834.08 2223.91,-810.84 2108.93,-804.06"/>
<polygon fill="black" stroke="black" points="2109.04,-800.56 2098.86,-803.48 2108.64,-807.55 2109.04,-800.56"/>
<text text-anchor="middle" x="2644.5" y="-927.8" font-family="Times,serif" font-size="14.00">0.0</text>
</g>
<!-- None&#45;end -->
<g id="node14" class="node">
<title>None&#45;end</title>
<ellipse fill="none" stroke="grey" cx="2753" cy="-1062" rx="55.49" ry="18"/>
<text text-anchor="middle" x="2753" y="-1058.3" font-family="Times,serif" font-size="14.00">None&#45;end</text>
</g>
</g>
</svg>
